<svg xmlns="http://www.w3.org/2000/svg" xmlns:xlink="http://www.w3.org/1999/xlink" width="800" zoomAndPan="magnify" viewBox="0 0 600 149.999998" height="200" preserveAspectRatio="xMidYMid meet" version="1.0"><defs><g/><clipPath id="d65938bdaa"><path d="M 116.128906 22.085938 L 221.957031 22.085938 L 221.957031 127.914062 L 116.128906 127.914062 Z M 116.128906 22.085938 " clip-rule="nonzero"/></clipPath><clipPath id="29329cde99"><path d="M 169.042969 22.085938 C 139.820312 22.085938 116.128906 45.777344 116.128906 75 C 116.128906 104.222656 139.820312 127.914062 169.042969 127.914062 C 198.265625 127.914062 221.957031 104.222656 221.957031 75 C 221.957031 45.777344 198.265625 22.085938 169.042969 22.085938 " clip-rule="nonzero"/></clipPath><clipPath id="4237e7b148"><path d="M 116.128906 22.085938 L 221.121094 22.085938 L 221.121094 127.078125 L 116.128906 127.078125 Z M 116.128906 22.085938 " clip-rule="nonzero"/></clipPath><clipPath id="3e1593938e"><path d="M 168.625 22.085938 C 139.632812 22.085938 116.128906 45.589844 116.128906 74.582031 C 116.128906 103.578125 139.632812 127.078125 168.625 127.078125 C 197.621094 127.078125 221.121094 103.578125 221.121094 74.582031 C 221.121094 45.589844 197.621094 22.085938 168.625 22.085938 " clip-rule="nonzero"/></clipPath><clipPath id="529e125b19"><path d="M 138.328125 49 L 200.199219 49 L 200.199219 96 L 138.328125 96 Z M 138.328125 49 " clip-rule="nonzero"/></clipPath><clipPath id="ae91a921bc"><path d="M 149 99 L 190 99 L 190 106.15625 L 149 106.15625 Z M 149 99 " clip-rule="nonzero"/></clipPath><clipPath id="8776fe18a6"><path d="M 138.328125 86 L 200.199219 86 L 200.199219 96 L 138.328125 96 Z M 138.328125 86 " clip-rule="nonzero"/></clipPath><clipPath id="9f800f8533"><path d="M 145 44.285156 L 163 44.285156 L 163 63 L 145 63 Z M 145 44.285156 " clip-rule="nonzero"/></clipPath><clipPath id="598d71667c"><path d="M 149 44.285156 L 159 44.285156 L 159 55 L 149 55 Z M 149 44.285156 " clip-rule="nonzero"/></clipPath></defs><g clip-path="url(#d65938bdaa)"><g clip-path="url(#29329cde99)"><path fill="#ffffff" d="M 116.128906 22.085938 L 221.957031 22.085938 L 221.957031 127.914062 L 116.128906 127.914062 Z M 116.128906 22.085938 " fill-opacity="1" fill-rule="nonzero"/></g></g><g clip-path="url(#4237e7b148)"><g clip-path="url(#3e1593938e)"><path stroke-linecap="butt" transform="matrix(1.860327, 0, 0, 1.860327, 116.130327, 22.087501)" fill="none" stroke-linejoin="miter" d="M 28.217989 -0.000840289 C 12.633527 -0.000840289 -0.000763724 12.633451 -0.000763724 28.217912 C -0.000763724 43.804474 12.633527 56.436665 28.217989 56.436665 C 43.804551 56.436665 56.436742 43.804474 56.436742 28.217912 C 56.436742 12.633451 43.804551 -0.000840289 28.217989 -0.000840289 " stroke="#5e17eb" stroke-width="6.400476" stroke-opacity="1" stroke-miterlimit="4"/></g></g><g clip-path="url(#529e125b19)"><path fill="#1bd527" d="M 196.738281 95.167969 L 141.789062 95.167969 C 141.351562 95.167969 140.933594 95.082031 140.527344 94.914062 C 140.125 94.75 139.769531 94.511719 139.457031 94.199219 C 139.148438 93.890625 138.910156 93.535156 138.742188 93.132812 C 138.578125 92.726562 138.492188 92.308594 138.492188 91.871094 L 138.492188 52.308594 C 138.492188 51.871094 138.578125 51.449219 138.742188 51.046875 C 138.910156 50.640625 139.148438 50.285156 139.457031 49.976562 C 139.769531 49.667969 140.125 49.429688 140.527344 49.261719 C 140.933594 49.09375 141.351562 49.011719 141.789062 49.011719 L 146.1875 49.011719 C 146.332031 49.011719 146.472656 49.039062 146.605469 49.09375 C 146.742188 49.148438 146.859375 49.230469 146.960938 49.332031 C 147.066406 49.4375 147.144531 49.554688 147.199219 49.6875 C 147.257812 49.824219 147.285156 49.964844 147.285156 50.109375 C 147.285156 50.253906 147.257812 50.394531 147.199219 50.53125 C 147.144531 50.664062 147.066406 50.785156 146.960938 50.886719 C 146.859375 50.988281 146.742188 51.070312 146.605469 51.125 C 146.472656 51.179688 146.332031 51.207031 146.1875 51.207031 L 141.789062 51.207031 C 141.644531 51.207031 141.503906 51.238281 141.371094 51.292969 C 141.234375 51.347656 141.117188 51.425781 141.011719 51.53125 C 140.910156 51.632812 140.832031 51.753906 140.773438 51.886719 C 140.71875 52.023438 140.691406 52.160156 140.691406 52.308594 L 140.691406 91.871094 C 140.691406 92.015625 140.71875 92.15625 140.773438 92.289062 C 140.832031 92.425781 140.910156 92.542969 141.011719 92.648438 C 141.117188 92.75 141.234375 92.828125 141.371094 92.886719 C 141.503906 92.941406 141.644531 92.96875 141.789062 92.96875 L 196.738281 92.96875 C 196.882812 92.96875 197.023438 92.941406 197.15625 92.886719 C 197.292969 92.828125 197.410156 92.75 197.515625 92.648438 C 197.617188 92.542969 197.695312 92.425781 197.753906 92.289062 C 197.808594 92.15625 197.835938 92.015625 197.835938 91.871094 L 197.835938 52.308594 C 197.835938 52.160156 197.808594 52.023438 197.753906 51.886719 C 197.695312 51.753906 197.617188 51.632812 197.515625 51.53125 C 197.410156 51.425781 197.292969 51.347656 197.15625 51.292969 C 197.023438 51.238281 196.882812 51.207031 196.738281 51.207031 L 161.570312 51.207031 C 161.425781 51.207031 161.285156 51.179688 161.148438 51.125 C 161.015625 51.070312 160.898438 50.988281 160.792969 50.886719 C 160.691406 50.785156 160.613281 50.664062 160.554688 50.53125 C 160.5 50.394531 160.472656 50.253906 160.472656 50.109375 C 160.472656 49.964844 160.5 49.824219 160.554688 49.6875 C 160.613281 49.554688 160.691406 49.4375 160.792969 49.332031 C 160.898438 49.230469 161.015625 49.148438 161.148438 49.09375 C 161.285156 49.039062 161.425781 49.011719 161.570312 49.011719 L 196.738281 49.011719 C 197.175781 49.011719 197.59375 49.09375 198 49.261719 C 198.402344 49.429688 198.757812 49.667969 199.066406 49.976562 C 199.378906 50.285156 199.617188 50.640625 199.78125 51.046875 C 199.949219 51.449219 200.035156 51.871094 200.035156 52.308594 L 200.035156 91.871094 C 200.035156 92.308594 199.949219 92.726562 199.78125 93.132812 C 199.617188 93.535156 199.378906 93.890625 199.066406 94.199219 C 198.757812 94.511719 198.402344 94.75 198 94.914062 C 197.59375 95.082031 197.175781 95.167969 196.738281 95.167969 Z M 196.738281 95.167969 " fill-opacity="1" fill-rule="nonzero"/></g><g clip-path="url(#ae91a921bc)"><path fill="#1bd527" d="M 185.746094 106.15625 L 152.78125 106.15625 C 152.34375 106.15625 151.921875 106.070312 151.519531 105.90625 C 151.113281 105.738281 150.757812 105.5 150.449219 105.191406 C 150.140625 104.882812 149.902344 104.523438 149.734375 104.121094 C 149.566406 103.714844 149.484375 103.296875 149.484375 102.859375 C 149.484375 102.421875 149.566406 102 149.734375 101.597656 C 149.902344 101.195312 150.140625 100.835938 150.449219 100.527344 C 150.757812 100.21875 151.113281 99.980469 151.519531 99.8125 C 151.921875 99.644531 152.34375 99.5625 152.78125 99.5625 L 185.746094 99.5625 C 186.183594 99.5625 186.605469 99.644531 187.007812 99.8125 C 187.414062 99.980469 187.769531 100.21875 188.078125 100.527344 C 188.386719 100.835938 188.625 101.195312 188.792969 101.597656 C 188.960938 102 189.042969 102.421875 189.042969 102.859375 C 189.042969 103.296875 188.960938 103.714844 188.792969 104.121094 C 188.625 104.523438 188.386719 104.882812 188.078125 105.191406 C 187.769531 105.5 187.414062 105.738281 187.007812 105.90625 C 186.605469 106.070312 186.183594 106.15625 185.746094 106.15625 Z M 152.78125 101.761719 C 152.632812 101.761719 152.492188 101.789062 152.359375 101.84375 C 152.222656 101.898438 152.105469 101.980469 152.003906 102.082031 C 151.898438 102.183594 151.820312 102.304688 151.765625 102.4375 C 151.707031 102.574219 151.679688 102.714844 151.679688 102.859375 C 151.679688 103.003906 151.707031 103.144531 151.765625 103.28125 C 151.820312 103.414062 151.898438 103.53125 152.003906 103.636719 C 152.105469 103.738281 152.222656 103.820312 152.359375 103.875 C 152.492188 103.929688 152.632812 103.957031 152.78125 103.957031 L 185.746094 103.957031 C 185.894531 103.957031 186.035156 103.929688 186.167969 103.875 C 186.304688 103.820312 186.421875 103.738281 186.523438 103.636719 C 186.628906 103.53125 186.707031 103.414062 186.761719 103.28125 C 186.820312 103.144531 186.847656 103.003906 186.847656 102.859375 C 186.847656 102.714844 186.820312 102.574219 186.761719 102.4375 C 186.707031 102.304688 186.628906 102.183594 186.523438 102.082031 C 186.421875 101.980469 186.304688 101.898438 186.167969 101.84375 C 186.035156 101.789062 185.894531 101.761719 185.746094 101.761719 Z M 152.78125 101.761719 " fill-opacity="1" fill-rule="nonzero"/></g><path fill="#1bd527" d="M 179.714844 101.761719 L 159.078125 101.761719 L 162.011719 92.96875 L 176.78125 92.96875 Z M 162.132812 99.5625 L 176.660156 99.5625 L 175.199219 95.167969 L 163.59375 95.167969 Z M 162.132812 99.5625 " fill-opacity="1" fill-rule="nonzero"/><path fill="#1bd527" d="M 178.054688 84.175781 C 177.910156 84.175781 177.769531 84.148438 177.632812 84.09375 C 177.5 84.039062 177.382812 83.957031 177.277344 83.855469 C 177.175781 83.753906 177.09375 83.632812 177.039062 83.5 C 176.984375 83.363281 176.957031 83.222656 176.957031 83.078125 L 176.957031 63.296875 C 176.957031 63.152344 176.929688 63.011719 176.871094 62.875 C 176.816406 62.742188 176.738281 62.625 176.632812 62.519531 C 176.53125 62.417969 176.414062 62.335938 176.277344 62.28125 C 176.144531 62.226562 176.003906 62.199219 175.855469 62.199219 L 170.363281 62.199219 C 170.214844 62.199219 170.078125 62.226562 169.941406 62.28125 C 169.808594 62.335938 169.6875 62.417969 169.585938 62.519531 C 169.480469 62.625 169.402344 62.742188 169.347656 62.875 C 169.292969 63.011719 169.261719 63.152344 169.261719 63.296875 L 169.261719 83.078125 C 169.261719 83.222656 169.234375 83.363281 169.179688 83.5 C 169.125 83.632812 169.042969 83.753906 168.941406 83.855469 C 168.839844 83.957031 168.71875 84.039062 168.585938 84.09375 C 168.449219 84.148438 168.308594 84.175781 168.164062 84.175781 C 168.019531 84.175781 167.878906 84.148438 167.742188 84.09375 C 167.609375 84.039062 167.492188 83.957031 167.386719 83.855469 C 167.285156 83.753906 167.203125 83.632812 167.148438 83.5 C 167.09375 83.363281 167.066406 83.222656 167.066406 83.078125 L 167.066406 63.296875 C 167.066406 62.859375 167.148438 62.4375 167.316406 62.035156 C 167.484375 61.632812 167.722656 61.273438 168.03125 60.964844 C 168.339844 60.65625 168.695312 60.417969 169.101562 60.25 C 169.503906 60.085938 169.925781 60 170.363281 60 L 175.855469 60 C 176.292969 60 176.714844 60.085938 177.117188 60.25 C 177.523438 60.417969 177.878906 60.65625 178.1875 60.964844 C 178.496094 61.273438 178.734375 61.632812 178.902344 62.035156 C 179.070312 62.4375 179.152344 62.859375 179.152344 63.296875 L 179.152344 83.078125 C 179.152344 83.222656 179.125 83.363281 179.070312 83.5 C 179.015625 83.632812 178.933594 83.753906 178.832031 83.855469 C 178.730469 83.957031 178.609375 84.039062 178.476562 84.09375 C 178.339844 84.148438 178.199219 84.175781 178.054688 84.175781 Z M 178.054688 84.175781 " fill-opacity="1" fill-rule="nonzero"/><path fill="#1bd527" d="M 178.054688 66.59375 L 172.558594 66.59375 C 172.414062 66.59375 172.273438 66.566406 172.140625 66.511719 C 172.003906 66.453125 171.886719 66.375 171.785156 66.273438 C 171.679688 66.167969 171.601562 66.050781 171.546875 65.914062 C 171.488281 65.78125 171.460938 65.640625 171.460938 65.496094 C 171.460938 65.347656 171.488281 65.210938 171.546875 65.074219 C 171.601562 64.941406 171.679688 64.820312 171.785156 64.71875 C 171.886719 64.613281 172.003906 64.535156 172.140625 64.480469 C 172.273438 64.425781 172.414062 64.394531 172.558594 64.394531 L 178.054688 64.394531 C 178.199219 64.394531 178.339844 64.425781 178.476562 64.480469 C 178.609375 64.535156 178.730469 64.613281 178.832031 64.71875 C 178.933594 64.820312 179.015625 64.941406 179.070312 65.074219 C 179.125 65.210938 179.152344 65.347656 179.152344 65.496094 C 179.152344 65.640625 179.125 65.78125 179.070312 65.914062 C 179.015625 66.050781 178.933594 66.167969 178.832031 66.273438 C 178.730469 66.375 178.609375 66.453125 178.476562 66.511719 C 178.339844 66.566406 178.199219 66.59375 178.054688 66.59375 Z M 178.054688 66.59375 " fill-opacity="1" fill-rule="nonzero"/><path fill="#1bd527" d="M 178.054688 70.988281 L 172.558594 70.988281 C 172.414062 70.988281 172.273438 70.960938 172.140625 70.90625 C 172.003906 70.851562 171.886719 70.769531 171.785156 70.667969 C 171.679688 70.566406 171.601562 70.445312 171.546875 70.3125 C 171.488281 70.175781 171.460938 70.035156 171.460938 69.890625 C 171.460938 69.746094 171.488281 69.605469 171.546875 69.46875 C 171.601562 69.335938 171.679688 69.214844 171.785156 69.113281 C 171.886719 69.011719 172.003906 68.929688 172.140625 68.875 C 172.273438 68.820312 172.414062 68.792969 172.558594 68.792969 L 178.054688 68.792969 C 178.199219 68.792969 178.339844 68.820312 178.476562 68.875 C 178.609375 68.929688 178.730469 69.011719 178.832031 69.113281 C 178.933594 69.214844 179.015625 69.335938 179.070312 69.46875 C 179.125 69.605469 179.152344 69.746094 179.152344 69.890625 C 179.152344 70.035156 179.125 70.175781 179.070312 70.3125 C 179.015625 70.445312 178.933594 70.566406 178.832031 70.667969 C 178.730469 70.769531 178.609375 70.851562 178.476562 70.90625 C 178.339844 70.960938 178.199219 70.988281 178.054688 70.988281 Z M 178.054688 70.988281 " fill-opacity="1" fill-rule="nonzero"/><path fill="#1bd527" d="M 178.054688 75.386719 L 172.558594 75.386719 C 172.414062 75.386719 172.273438 75.359375 172.140625 75.300781 C 172.003906 75.246094 171.886719 75.167969 171.785156 75.0625 C 171.679688 74.960938 171.601562 74.839844 171.546875 74.707031 C 171.488281 74.574219 171.460938 74.433594 171.460938 74.285156 C 171.460938 74.140625 171.488281 74 171.546875 73.867188 C 171.601562 73.730469 171.679688 73.613281 171.785156 73.507812 C 171.886719 73.40625 172.003906 73.328125 172.140625 73.269531 C 172.273438 73.214844 172.414062 73.1875 172.558594 73.1875 L 178.054688 73.1875 C 178.199219 73.1875 178.339844 73.214844 178.476562 73.269531 C 178.609375 73.328125 178.730469 73.40625 178.832031 73.507812 C 178.933594 73.613281 179.015625 73.730469 179.070312 73.867188 C 179.125 74 179.152344 74.140625 179.152344 74.285156 C 179.152344 74.433594 179.125 74.574219 179.070312 74.707031 C 179.015625 74.839844 178.933594 74.960938 178.832031 75.0625 C 178.730469 75.167969 178.609375 75.246094 178.476562 75.300781 C 178.339844 75.359375 178.199219 75.386719 178.054688 75.386719 Z M 178.054688 75.386719 " fill-opacity="1" fill-rule="nonzero"/><path fill="#1bd527" d="M 192.339844 84.175781 C 192.195312 84.175781 192.054688 84.148438 191.921875 84.09375 C 191.785156 84.039062 191.667969 83.957031 191.5625 83.855469 C 191.460938 83.753906 191.382812 83.632812 191.324219 83.5 C 191.269531 83.363281 191.242188 83.222656 191.242188 83.078125 L 191.242188 75.386719 C 191.242188 75.238281 191.214844 75.097656 191.160156 74.964844 C 191.101562 74.832031 191.023438 74.710938 190.921875 74.609375 C 190.816406 74.503906 190.699219 74.425781 190.5625 74.371094 C 190.429688 74.316406 190.289062 74.285156 190.144531 74.285156 L 186.847656 74.285156 C 186.699219 74.285156 186.5625 74.316406 186.425781 74.371094 C 186.292969 74.425781 186.171875 74.503906 186.070312 74.609375 C 185.964844 74.710938 185.886719 74.832031 185.832031 74.964844 C 185.777344 75.101562 185.746094 75.238281 185.746094 75.386719 L 185.746094 83.078125 C 185.746094 83.222656 185.71875 83.363281 185.664062 83.5 C 185.609375 83.632812 185.527344 83.753906 185.425781 83.855469 C 185.324219 83.957031 185.203125 84.039062 185.070312 84.09375 C 184.933594 84.148438 184.792969 84.175781 184.648438 84.175781 C 184.503906 84.175781 184.363281 84.148438 184.226562 84.09375 C 184.09375 84.039062 183.976562 83.957031 183.871094 83.855469 C 183.769531 83.753906 183.6875 83.632812 183.632812 83.5 C 183.578125 83.363281 183.550781 83.222656 183.550781 83.078125 L 183.550781 75.386719 C 183.550781 74.949219 183.632812 74.527344 183.800781 74.125 C 183.96875 73.71875 184.207031 73.363281 184.515625 73.054688 C 184.824219 72.746094 185.179688 72.507812 185.585938 72.339844 C 185.988281 72.171875 186.410156 72.089844 186.847656 72.089844 L 190.144531 72.089844 C 190.582031 72.089844 191 72.171875 191.40625 72.339844 C 191.808594 72.507812 192.164062 72.746094 192.472656 73.054688 C 192.785156 73.363281 193.023438 73.71875 193.1875 74.125 C 193.355469 74.527344 193.441406 74.949219 193.441406 75.386719 L 193.441406 83.078125 C 193.441406 83.222656 193.414062 83.363281 193.355469 83.5 C 193.300781 83.632812 193.222656 83.753906 193.117188 83.855469 C 193.015625 83.957031 192.894531 84.039062 192.761719 84.09375 C 192.628906 84.148438 192.488281 84.175781 192.339844 84.175781 Z M 192.339844 84.175781 " fill-opacity="1" fill-rule="nonzero"/><path fill="#1bd527" d="M 193.441406 78.683594 L 183.550781 78.683594 L 183.550781 75.386719 C 183.550781 74.949219 183.632812 74.527344 183.800781 74.125 C 183.96875 73.71875 184.207031 73.363281 184.515625 73.054688 C 184.824219 72.746094 185.179688 72.507812 185.585938 72.339844 C 185.988281 72.171875 186.410156 72.089844 186.847656 72.089844 L 190.144531 72.089844 C 190.582031 72.089844 191 72.171875 191.40625 72.339844 C 191.808594 72.507812 192.164062 72.746094 192.472656 73.054688 C 192.785156 73.363281 193.023438 73.71875 193.1875 74.125 C 193.355469 74.527344 193.441406 74.949219 193.441406 75.386719 Z M 185.746094 76.484375 L 191.242188 76.484375 L 191.242188 75.386719 C 191.242188 75.238281 191.214844 75.097656 191.160156 74.964844 C 191.101562 74.832031 191.023438 74.710938 190.921875 74.609375 C 190.816406 74.503906 190.699219 74.425781 190.5625 74.371094 C 190.429688 74.316406 190.289062 74.285156 190.144531 74.285156 L 186.847656 74.285156 C 186.699219 74.285156 186.5625 74.316406 186.425781 74.371094 C 186.292969 74.425781 186.171875 74.503906 186.070312 74.609375 C 185.964844 74.710938 185.886719 74.832031 185.832031 74.964844 C 185.777344 75.101562 185.746094 75.238281 185.746094 75.386719 Z M 185.746094 76.484375 " fill-opacity="1" fill-rule="nonzero"/><g clip-path="url(#8776fe18a6)"><path fill="#1bd527" d="M 196.738281 95.167969 L 141.789062 95.167969 C 141.351562 95.167969 140.933594 95.082031 140.527344 94.914062 C 140.125 94.75 139.769531 94.511719 139.457031 94.199219 C 139.148438 93.890625 138.910156 93.535156 138.742188 93.132812 C 138.578125 92.726562 138.492188 92.308594 138.492188 91.871094 L 138.492188 86.375 L 200.035156 86.375 L 200.035156 91.871094 C 200.035156 92.308594 199.949219 92.726562 199.78125 93.132812 C 199.617188 93.535156 199.378906 93.890625 199.066406 94.199219 C 198.757812 94.511719 198.402344 94.75 198 94.914062 C 197.59375 95.082031 197.175781 95.167969 196.738281 95.167969 Z M 140.691406 88.574219 L 140.691406 91.871094 C 140.691406 92.015625 140.71875 92.15625 140.773438 92.289062 C 140.832031 92.425781 140.910156 92.542969 141.011719 92.648438 C 141.117188 92.75 141.234375 92.828125 141.371094 92.886719 C 141.503906 92.941406 141.644531 92.96875 141.789062 92.96875 L 196.738281 92.96875 C 196.882812 92.96875 197.023438 92.941406 197.15625 92.886719 C 197.292969 92.828125 197.410156 92.75 197.515625 92.648438 C 197.617188 92.542969 197.695312 92.425781 197.753906 92.289062 C 197.808594 92.15625 197.835938 92.015625 197.835938 91.871094 L 197.835938 88.574219 Z M 140.691406 88.574219 " fill-opacity="1" fill-rule="nonzero"/></g><g clip-path="url(#9f800f8533)"><path fill="#1bd527" d="M 161.636719 62.199219 L 146.25 62.199219 C 145.84375 62.199219 145.535156 62.027344 145.316406 61.683594 C 145.085938 61.324219 145.070312 60.960938 145.261719 60.582031 L 152.957031 44.933594 C 153.046875 44.746094 153.183594 44.59375 153.359375 44.480469 C 153.539062 44.371094 153.734375 44.3125 153.945312 44.3125 C 154.15625 44.3125 154.347656 44.371094 154.527344 44.480469 C 154.707031 44.59375 154.839844 44.746094 154.933594 44.933594 L 162.625 60.582031 C 162.820312 60.960938 162.800781 61.324219 162.570312 61.683594 C 162.355469 62.027344 162.042969 62.199219 161.636719 62.199219 Z M 148.019531 60 L 159.867188 60 L 153.945312 47.910156 Z M 148.019531 60 " fill-opacity="1" fill-rule="nonzero"/></g><g clip-path="url(#598d71667c)"><path fill="#1bd527" d="M 153.945312 54.503906 C 152.445312 54.511719 151.105469 54.054688 149.921875 53.132812 C 149.714844 52.972656 149.582031 52.765625 149.523438 52.511719 C 149.460938 52.257812 149.488281 52.015625 149.601562 51.78125 L 152.957031 44.96875 C 153.046875 44.777344 153.183594 44.625 153.359375 44.515625 C 153.539062 44.402344 153.734375 44.347656 153.945312 44.347656 C 154.15625 44.347656 154.347656 44.402344 154.527344 44.515625 C 154.707031 44.625 154.839844 44.777344 154.933594 44.96875 L 158.273438 51.8125 C 158.386719 52.046875 158.414062 52.292969 158.355469 52.546875 C 158.296875 52.800781 158.164062 53.007812 157.957031 53.164062 C 156.773438 54.074219 155.433594 54.519531 153.945312 54.503906 Z M 152.011719 51.890625 C 152.621094 52.1875 153.265625 52.339844 153.945312 52.339844 C 154.625 52.339844 155.269531 52.1875 155.878906 51.890625 L 153.945312 47.96875 Z M 152.011719 51.890625 " fill-opacity="1" fill-rule="nonzero"/></g><path fill="#1bd527" d="M 150.648438 84.175781 C 150.5 84.175781 150.363281 84.148438 150.226562 84.09375 C 150.09375 84.039062 149.972656 83.957031 149.871094 83.855469 C 149.765625 83.753906 149.6875 83.632812 149.632812 83.5 C 149.578125 83.363281 149.546875 83.222656 149.546875 83.078125 L 149.546875 62.199219 L 147.351562 62.199219 L 147.351562 83.078125 C 147.351562 83.222656 147.324219 83.363281 147.265625 83.5 C 147.210938 83.632812 147.132812 83.753906 147.027344 83.855469 C 146.925781 83.957031 146.808594 84.039062 146.671875 84.09375 C 146.539062 84.148438 146.398438 84.175781 146.25 84.175781 C 146.105469 84.175781 145.964844 84.148438 145.832031 84.09375 C 145.695312 84.039062 145.578125 83.957031 145.472656 83.855469 C 145.371094 83.753906 145.292969 83.632812 145.238281 83.5 C 145.179688 83.363281 145.152344 83.222656 145.152344 83.078125 L 145.152344 61.097656 C 145.152344 60.953125 145.179688 60.8125 145.238281 60.679688 C 145.292969 60.542969 145.371094 60.425781 145.472656 60.320312 C 145.578125 60.21875 145.695312 60.140625 145.832031 60.085938 C 145.964844 60.027344 146.105469 60 146.25 60 L 150.648438 60 C 150.792969 60 150.933594 60.027344 151.066406 60.085938 C 151.203125 60.140625 151.320312 60.21875 151.425781 60.320312 C 151.527344 60.425781 151.605469 60.542969 151.664062 60.679688 C 151.71875 60.8125 151.746094 60.953125 151.746094 61.097656 L 151.746094 83.078125 C 151.746094 83.222656 151.71875 83.363281 151.664062 83.5 C 151.605469 83.632812 151.527344 83.753906 151.425781 83.855469 C 151.320312 83.957031 151.203125 84.039062 151.066406 84.09375 C 150.933594 84.148438 150.792969 84.175781 150.648438 84.175781 Z M 150.648438 84.175781 " fill-opacity="1" fill-rule="nonzero"/><path fill="#1bd527" d="M 161.636719 84.175781 C 161.492188 84.175781 161.351562 84.148438 161.214844 84.09375 C 161.082031 84.039062 160.960938 83.957031 160.859375 83.855469 C 160.757812 83.753906 160.675781 83.632812 160.621094 83.5 C 160.566406 83.363281 160.539062 83.222656 160.539062 83.078125 L 160.539062 62.199219 L 158.339844 62.199219 L 158.339844 83.078125 C 158.339844 83.222656 158.3125 83.363281 158.257812 83.5 C 158.199219 83.632812 158.121094 83.753906 158.019531 83.855469 C 157.914062 83.957031 157.796875 84.039062 157.660156 84.09375 C 157.527344 84.148438 157.386719 84.175781 157.242188 84.175781 C 157.09375 84.175781 156.957031 84.148438 156.820312 84.09375 C 156.6875 84.039062 156.566406 83.957031 156.464844 83.855469 C 156.359375 83.753906 156.28125 83.632812 156.226562 83.5 C 156.171875 83.363281 156.140625 83.222656 156.140625 83.078125 L 156.140625 61.097656 C 156.140625 60.953125 156.171875 60.8125 156.226562 60.679688 C 156.28125 60.542969 156.359375 60.425781 156.464844 60.320312 C 156.566406 60.21875 156.6875 60.140625 156.820312 60.085938 C 156.957031 60.027344 157.09375 60 157.242188 60 L 161.636719 60 C 161.78125 60 161.921875 60.027344 162.058594 60.085938 C 162.191406 60.140625 162.3125 60.21875 162.414062 60.320312 C 162.515625 60.425781 162.597656 60.542969 162.652344 60.679688 C 162.707031 60.8125 162.734375 60.953125 162.734375 61.097656 L 162.734375 83.078125 C 162.734375 83.222656 162.707031 83.363281 162.652344 83.5 C 162.597656 83.632812 162.515625 83.753906 162.414062 83.855469 C 162.3125 83.957031 162.191406 84.039062 162.058594 84.09375 C 161.921875 84.148438 161.78125 84.175781 161.636719 84.175781 Z M 161.636719 84.175781 " fill-opacity="1" fill-rule="nonzero"/><g fill="#151515" fill-opacity="1"><g transform="translate(229.000168, 79.245127)"><g><path d="M 17.015625 -4.3125 C 17.660156 -4.3125 18.195312 -4.109375 18.625 -3.703125 C 19.050781 -3.296875 19.265625 -2.773438 19.265625 -2.140625 C 19.265625 -1.523438 19.050781 -1.015625 18.625 -0.609375 C 18.195312 -0.203125 17.660156 0 17.015625 0 L 5.015625 0 C 4.378906 0 3.84375 -0.210938 3.40625 -0.640625 C 2.976562 -1.078125 2.765625 -1.613281 2.765625 -2.25 L 2.765625 -23.59375 C 2.765625 -24.226562 2.984375 -24.757812 3.421875 -25.1875 C 3.867188 -25.625 4.4375 -25.84375 5.125 -25.84375 C 5.75 -25.84375 6.28125 -25.625 6.71875 -25.1875 C 7.164062 -24.757812 7.390625 -24.226562 7.390625 -23.59375 L 7.390625 -4.3125 Z M 17.015625 -4.3125 "/></g></g></g><g fill="#151515" fill-opacity="1"><g transform="translate(249.747953, 79.245127)"><g><path d="M 6.578125 -2.25 C 6.578125 -1.613281 6.363281 -1.078125 5.9375 -0.640625 C 5.519531 -0.210938 4.992188 0 4.359375 0 C 3.710938 0 3.179688 -0.210938 2.765625 -0.640625 C 2.347656 -1.078125 2.140625 -1.613281 2.140625 -2.25 L 2.140625 -17.5 C 2.140625 -18.144531 2.347656 -18.679688 2.765625 -19.109375 C 3.179688 -19.535156 3.710938 -19.75 4.359375 -19.75 C 4.992188 -19.75 5.519531 -19.535156 5.9375 -19.109375 C 6.363281 -18.679688 6.578125 -18.144531 6.578125 -17.5 Z M 4.328125 -22.15625 C 3.484375 -22.15625 2.890625 -22.289062 2.546875 -22.5625 C 2.203125 -22.832031 2.03125 -23.3125 2.03125 -24 L 2.03125 -24.703125 C 2.03125 -25.390625 2.210938 -25.867188 2.578125 -26.140625 C 2.953125 -26.410156 3.546875 -26.546875 4.359375 -26.546875 C 5.222656 -26.546875 5.828125 -26.410156 6.171875 -26.140625 C 6.515625 -25.867188 6.6875 -25.390625 6.6875 -24.703125 L 6.6875 -24 C 6.6875 -23.28125 6.503906 -22.789062 6.140625 -22.53125 C 5.785156 -22.28125 5.179688 -22.15625 4.328125 -22.15625 Z M 4.328125 -22.15625 "/></g></g></g><g fill="#151515" fill-opacity="1"><g transform="translate(258.460548, 79.245127)"><g><path d="M 12.953125 -20.125 C 15.460938 -20.125 17.195312 -19.378906 18.15625 -17.890625 C 19.125 -16.398438 19.609375 -14.335938 19.609375 -11.703125 L 19.609375 -2.25 C 19.609375 -1.613281 19.394531 -1.078125 18.96875 -0.640625 C 18.550781 -0.210938 18.023438 0 17.390625 0 C 16.753906 0 16.222656 -0.210938 15.796875 -0.640625 C 15.378906 -1.078125 15.171875 -1.613281 15.171875 -2.25 L 15.171875 -11.703125 C 15.171875 -13.054688 14.882812 -14.117188 14.3125 -14.890625 C 13.75 -15.671875 12.78125 -16.0625 11.40625 -16.0625 C 9.976562 -16.0625 8.859375 -15.648438 8.046875 -14.828125 C 7.234375 -14.003906 6.828125 -12.960938 6.828125 -11.703125 L 6.828125 -2.25 C 6.828125 -1.613281 6.617188 -1.078125 6.203125 -0.640625 C 5.785156 -0.210938 5.253906 0 4.609375 0 C 3.972656 0 3.445312 -0.210938 3.03125 -0.640625 C 2.613281 -1.078125 2.40625 -1.613281 2.40625 -2.25 L 2.40625 -17.5 C 2.40625 -18.144531 2.613281 -18.679688 3.03125 -19.109375 C 3.445312 -19.535156 3.972656 -19.75 4.609375 -19.75 C 5.253906 -19.75 5.785156 -19.535156 6.203125 -19.109375 C 6.617188 -18.679688 6.828125 -18.144531 6.828125 -17.5 L 6.828125 -16.875 C 7.492188 -17.757812 8.363281 -18.519531 9.4375 -19.15625 C 10.507812 -19.800781 11.679688 -20.125 12.953125 -20.125 Z M 12.953125 -20.125 "/></g></g></g><g fill="#151515" fill-opacity="1"><g transform="translate(280.463543, 79.245127)"><g><path d="M 18.75 -20.125 C 19.394531 -20.125 19.925781 -19.910156 20.34375 -19.484375 C 20.757812 -19.066406 20.96875 -18.53125 20.96875 -17.875 L 20.96875 -1.4375 C 20.96875 1.5625 20.035156 3.78125 18.171875 5.21875 C 16.316406 6.664062 13.960938 7.390625 11.109375 7.390625 C 10.367188 7.390625 9.351562 7.265625 8.0625 7.015625 C 6.769531 6.765625 5.851562 6.519531 5.3125 6.28125 C 4.101562 5.757812 3.5 5.046875 3.5 4.140625 C 3.5 3.960938 3.539062 3.765625 3.625 3.546875 C 3.769531 3.003906 4.019531 2.59375 4.375 2.3125 C 4.726562 2.03125 5.113281 1.890625 5.53125 1.890625 C 5.78125 1.890625 6.015625 1.925781 6.234375 2 C 6.335938 2.019531 6.945312 2.242188 8.0625 2.671875 C 9.1875 3.109375 10.203125 3.328125 11.109375 3.328125 C 12.929688 3.328125 14.289062 2.960938 15.1875 2.234375 C 16.09375 1.503906 16.546875 0.476562 16.546875 -0.84375 L 16.546875 -2.625 C 16.003906 -1.863281 15.179688 -1.171875 14.078125 -0.546875 C 12.984375 0.0664062 11.8125 0.375 10.5625 0.375 C 8.832031 0.375 7.257812 -0.0625 5.84375 -0.9375 C 4.4375 -1.8125 3.328125 -3.023438 2.515625 -4.578125 C 1.703125 -6.128906 1.296875 -7.890625 1.296875 -9.859375 C 1.296875 -11.828125 1.691406 -13.59375 2.484375 -15.15625 C 3.285156 -16.71875 4.378906 -17.9375 5.765625 -18.8125 C 7.160156 -19.6875 8.707031 -20.125 10.40625 -20.125 C 11.664062 -20.125 12.835938 -19.863281 13.921875 -19.34375 C 15.003906 -18.832031 15.878906 -18.207031 16.546875 -17.46875 L 16.546875 -17.875 C 16.546875 -18.507812 16.753906 -19.039062 17.171875 -19.46875 C 17.585938 -19.90625 18.113281 -20.125 18.75 -20.125 Z M 11.109375 -3.6875 C 12.765625 -3.6875 14.113281 -4.269531 15.15625 -5.4375 C 16.195312 -6.613281 16.71875 -8.085938 16.71875 -9.859375 C 16.71875 -11.628906 16.195312 -13.101562 15.15625 -14.28125 C 14.113281 -15.46875 12.765625 -16.0625 11.109375 -16.0625 C 9.460938 -16.0625 8.117188 -15.46875 7.078125 -14.28125 C 6.046875 -13.101562 5.53125 -11.628906 5.53125 -9.859375 C 5.53125 -8.085938 6.046875 -6.613281 7.078125 -5.4375 C 8.117188 -4.269531 9.460938 -3.6875 11.109375 -3.6875 Z M 11.109375 -3.6875 "/></g></g></g><g fill="#151515" fill-opacity="1"><g transform="translate(303.832494, 79.245127)"><g><path d="M 17.0625 -19.75 C 17.695312 -19.75 18.222656 -19.535156 18.640625 -19.109375 C 19.054688 -18.679688 19.265625 -18.144531 19.265625 -17.5 L 19.265625 -8.125 C 19.265625 -5.46875 18.53125 -3.382812 17.0625 -1.875 C 15.601562 -0.375 13.519531 0.375 10.8125 0.375 C 8.101562 0.375 6.023438 -0.375 4.578125 -1.875 C 3.128906 -3.382812 2.40625 -5.46875 2.40625 -8.125 L 2.40625 -17.5 C 2.40625 -18.144531 2.613281 -18.679688 3.03125 -19.109375 C 3.445312 -19.535156 3.972656 -19.75 4.609375 -19.75 C 5.253906 -19.75 5.785156 -19.535156 6.203125 -19.109375 C 6.617188 -18.679688 6.828125 -18.144531 6.828125 -17.5 L 6.828125 -8.125 C 6.828125 -6.625 7.160156 -5.507812 7.828125 -4.78125 C 8.492188 -4.050781 9.488281 -3.6875 10.8125 -3.6875 C 12.164062 -3.6875 13.175781 -4.050781 13.84375 -4.78125 C 14.507812 -5.507812 14.84375 -6.625 14.84375 -8.125 L 14.84375 -17.5 C 14.84375 -18.144531 15.050781 -18.679688 15.46875 -19.109375 C 15.882812 -19.535156 16.414062 -19.75 17.0625 -19.75 Z M 17.0625 -19.75 "/></g></g></g><g fill="#151515" fill-opacity="1"><g transform="translate(325.503228, 79.245127)"><g><path d="M 18.390625 -20.125 C 19.023438 -20.125 19.550781 -19.910156 19.96875 -19.484375 C 20.394531 -19.066406 20.609375 -18.53125 20.609375 -17.875 L 20.609375 -2.25 C 20.609375 -1.613281 20.394531 -1.078125 19.96875 -0.640625 C 19.550781 -0.210938 19.023438 0 18.390625 0 C 17.742188 0 17.21875 -0.207031 16.8125 -0.625 C 16.40625 -1.039062 16.191406 -1.570312 16.171875 -2.21875 C 15.554688 -1.5 14.722656 -0.882812 13.671875 -0.375 C 12.628906 0.125 11.53125 0.375 10.375 0.375 C 8.675781 0.375 7.132812 -0.0625 5.75 -0.9375 C 4.375 -1.8125 3.285156 -3.023438 2.484375 -4.578125 C 1.691406 -6.128906 1.296875 -7.890625 1.296875 -9.859375 C 1.296875 -11.828125 1.6875 -13.59375 2.46875 -15.15625 C 3.257812 -16.71875 4.335938 -17.9375 5.703125 -18.8125 C 7.066406 -19.6875 8.578125 -20.125 10.234375 -20.125 C 11.410156 -20.125 12.515625 -19.90625 13.546875 -19.46875 C 14.578125 -19.039062 15.453125 -18.492188 16.171875 -17.828125 L 16.171875 -17.875 C 16.171875 -18.507812 16.378906 -19.039062 16.796875 -19.46875 C 17.210938 -19.90625 17.742188 -20.125 18.390625 -20.125 Z M 10.921875 -3.6875 C 12.523438 -3.6875 13.832031 -4.269531 14.84375 -5.4375 C 15.851562 -6.613281 16.359375 -8.085938 16.359375 -9.859375 C 16.359375 -11.628906 15.851562 -13.101562 14.84375 -14.28125 C 13.832031 -15.46875 12.523438 -16.0625 10.921875 -16.0625 C 9.347656 -16.0625 8.054688 -15.46875 7.046875 -14.28125 C 6.035156 -13.101562 5.53125 -11.628906 5.53125 -9.859375 C 5.53125 -8.085938 6.03125 -6.613281 7.03125 -5.4375 C 8.03125 -4.269531 9.328125 -3.6875 10.921875 -3.6875 Z M 10.921875 -3.6875 "/></g></g></g><g fill="#151515" fill-opacity="1"><g transform="translate(348.503007, 79.245127)"><g/></g></g><g fill="#151515" fill-opacity="1"><g transform="translate(358.839982, 79.245127)"><g><path d="M 7.390625 -21.59375 L 7.390625 -15.09375 L 15.359375 -15.09375 C 15.992188 -15.09375 16.523438 -14.890625 16.953125 -14.484375 C 17.390625 -14.078125 17.609375 -13.554688 17.609375 -12.921875 C 17.609375 -12.378906 17.390625 -11.898438 16.953125 -11.484375 C 16.523438 -11.066406 15.992188 -10.859375 15.359375 -10.859375 L 7.390625 -10.859375 L 7.390625 -2.25 C 7.390625 -1.613281 7.160156 -1.078125 6.703125 -0.640625 C 6.242188 -0.210938 5.707031 0 5.09375 0 C 4.40625 0 3.84375 -0.207031 3.40625 -0.625 C 2.976562 -1.039062 2.765625 -1.582031 2.765625 -2.25 L 2.765625 -23.59375 C 2.765625 -24.226562 2.976562 -24.757812 3.40625 -25.1875 C 3.84375 -25.625 4.378906 -25.84375 5.015625 -25.84375 L 17.015625 -25.84375 C 17.660156 -25.84375 18.195312 -25.640625 18.625 -25.234375 C 19.050781 -24.828125 19.265625 -24.304688 19.265625 -23.671875 C 19.265625 -23.128906 19.050781 -22.644531 18.625 -22.21875 C 18.195312 -21.800781 17.660156 -21.59375 17.015625 -21.59375 Z M 7.390625 -21.59375 "/></g></g></g><g fill="#151515" fill-opacity="1"><g transform="translate(379.587768, 79.245127)"><g><path d="M 12.671875 -20.125 C 13.398438 -20.125 14.015625 -19.910156 14.515625 -19.484375 C 15.023438 -19.066406 15.28125 -18.578125 15.28125 -18.015625 C 15.28125 -17.253906 15.082031 -16.679688 14.6875 -16.296875 C 14.300781 -15.921875 13.835938 -15.734375 13.296875 -15.734375 C 12.921875 -15.734375 12.5 -15.816406 12.03125 -15.984375 C 11.957031 -16.015625 11.789062 -16.066406 11.53125 -16.140625 C 11.28125 -16.210938 11.003906 -16.25 10.703125 -16.25 C 10.066406 -16.25 9.453125 -16.050781 8.859375 -15.65625 C 8.265625 -15.257812 7.773438 -14.660156 7.390625 -13.859375 C 7.015625 -13.066406 6.828125 -12.113281 6.828125 -11 L 6.828125 -2.25 C 6.828125 -1.613281 6.617188 -1.078125 6.203125 -0.640625 C 5.785156 -0.210938 5.253906 0 4.609375 0 C 3.972656 0 3.445312 -0.210938 3.03125 -0.640625 C 2.613281 -1.078125 2.40625 -1.613281 2.40625 -2.25 L 2.40625 -17.5 C 2.40625 -18.144531 2.613281 -18.679688 3.03125 -19.109375 C 3.445312 -19.535156 3.972656 -19.75 4.609375 -19.75 C 5.253906 -19.75 5.785156 -19.535156 6.203125 -19.109375 C 6.617188 -18.679688 6.828125 -18.144531 6.828125 -17.5 L 6.828125 -17.015625 C 7.398438 -18.023438 8.210938 -18.796875 9.265625 -19.328125 C 10.328125 -19.859375 11.460938 -20.125 12.671875 -20.125 Z M 12.671875 -20.125 "/></g></g></g><g fill="#151515" fill-opacity="1"><g transform="translate(395.610078, 79.245127)"><g><path d="M 18.390625 -20.125 C 19.023438 -20.125 19.550781 -19.910156 19.96875 -19.484375 C 20.394531 -19.066406 20.609375 -18.53125 20.609375 -17.875 L 20.609375 -2.25 C 20.609375 -1.613281 20.394531 -1.078125 19.96875 -0.640625 C 19.550781 -0.210938 19.023438 0 18.390625 0 C 17.742188 0 17.21875 -0.207031 16.8125 -0.625 C 16.40625 -1.039062 16.191406 -1.570312 16.171875 -2.21875 C 15.554688 -1.5 14.722656 -0.882812 13.671875 -0.375 C 12.628906 0.125 11.53125 0.375 10.375 0.375 C 8.675781 0.375 7.132812 -0.0625 5.75 -0.9375 C 4.375 -1.8125 3.285156 -3.023438 2.484375 -4.578125 C 1.691406 -6.128906 1.296875 -7.890625 1.296875 -9.859375 C 1.296875 -11.828125 1.6875 -13.59375 2.46875 -15.15625 C 3.257812 -16.71875 4.335938 -17.9375 5.703125 -18.8125 C 7.066406 -19.6875 8.578125 -20.125 10.234375 -20.125 C 11.410156 -20.125 12.515625 -19.90625 13.546875 -19.46875 C 14.578125 -19.039062 15.453125 -18.492188 16.171875 -17.828125 L 16.171875 -17.875 C 16.171875 -18.507812 16.378906 -19.039062 16.796875 -19.46875 C 17.210938 -19.90625 17.742188 -20.125 18.390625 -20.125 Z M 10.921875 -3.6875 C 12.523438 -3.6875 13.832031 -4.269531 14.84375 -5.4375 C 15.851562 -6.613281 16.359375 -8.085938 16.359375 -9.859375 C 16.359375 -11.628906 15.851562 -13.101562 14.84375 -14.28125 C 13.832031 -15.46875 12.523438 -16.0625 10.921875 -16.0625 C 9.347656 -16.0625 8.054688 -15.46875 7.046875 -14.28125 C 6.035156 -13.101562 5.53125 -11.628906 5.53125 -9.859375 C 5.53125 -8.085938 6.03125 -6.613281 7.03125 -5.4375 C 8.03125 -4.269531 9.328125 -3.6875 10.921875 -3.6875 Z M 10.921875 -3.6875 "/></g></g></g><g fill="#151515" fill-opacity="1"><g transform="translate(418.609857, 79.245127)"><g><path d="M 12.953125 -20.125 C 15.460938 -20.125 17.195312 -19.378906 18.15625 -17.890625 C 19.125 -16.398438 19.609375 -14.335938 19.609375 -11.703125 L 19.609375 -2.25 C 19.609375 -1.613281 19.394531 -1.078125 18.96875 -0.640625 C 18.550781 -0.210938 18.023438 0 17.390625 0 C 16.753906 0 16.222656 -0.210938 15.796875 -0.640625 C 15.378906 -1.078125 15.171875 -1.613281 15.171875 -2.25 L 15.171875 -11.703125 C 15.171875 -13.054688 14.882812 -14.117188 14.3125 -14.890625 C 13.75 -15.671875 12.78125 -16.0625 11.40625 -16.0625 C 9.976562 -16.0625 8.859375 -15.648438 8.046875 -14.828125 C 7.234375 -14.003906 6.828125 -12.960938 6.828125 -11.703125 L 6.828125 -2.25 C 6.828125 -1.613281 6.617188 -1.078125 6.203125 -0.640625 C 5.785156 -0.210938 5.253906 0 4.609375 0 C 3.972656 0 3.445312 -0.210938 3.03125 -0.640625 C 2.613281 -1.078125 2.40625 -1.613281 2.40625 -2.25 L 2.40625 -17.5 C 2.40625 -18.144531 2.613281 -18.679688 3.03125 -19.109375 C 3.445312 -19.535156 3.972656 -19.75 4.609375 -19.75 C 5.253906 -19.75 5.785156 -19.535156 6.203125 -19.109375 C 6.617188 -18.679688 6.828125 -18.144531 6.828125 -17.5 L 6.828125 -16.875 C 7.492188 -17.757812 8.363281 -18.519531 9.4375 -19.15625 C 10.507812 -19.800781 11.679688 -20.125 12.953125 -20.125 Z M 12.953125 -20.125 "/></g></g></g><g fill="#151515" fill-opacity="1"><g transform="translate(440.612853, 79.245127)"><g><path d="M 11 -20.125 C 13.09375 -20.125 14.78125 -19.796875 16.0625 -19.140625 C 17.34375 -18.492188 17.984375 -17.628906 17.984375 -16.546875 C 17.984375 -16.003906 17.820312 -15.53125 17.5 -15.125 C 17.175781 -14.71875 16.757812 -14.515625 16.25 -14.515625 C 15.851562 -14.515625 15.53125 -14.566406 15.28125 -14.671875 C 15.039062 -14.785156 14.800781 -14.929688 14.5625 -15.109375 C 14.332031 -15.296875 14.101562 -15.453125 13.875 -15.578125 C 13.632812 -15.703125 13.273438 -15.8125 12.796875 -15.90625 C 12.316406 -16.007812 11.925781 -16.0625 11.625 -16.0625 C 9.78125 -16.0625 8.332031 -15.488281 7.28125 -14.34375 C 6.238281 -13.195312 5.71875 -11.703125 5.71875 -9.859375 C 5.71875 -8.085938 6.242188 -6.613281 7.296875 -5.4375 C 8.359375 -4.269531 9.71875 -3.6875 11.375 -3.6875 C 12.582031 -3.6875 13.476562 -3.835938 14.0625 -4.140625 C 14.207031 -4.210938 14.410156 -4.335938 14.671875 -4.515625 C 14.929688 -4.703125 15.171875 -4.84375 15.390625 -4.9375 C 15.617188 -5.039062 15.890625 -5.09375 16.203125 -5.09375 C 16.816406 -5.09375 17.300781 -4.894531 17.65625 -4.5 C 18.019531 -4.101562 18.203125 -3.597656 18.203125 -2.984375 C 18.203125 -2.398438 17.859375 -1.847656 17.171875 -1.328125 C 16.484375 -0.804688 15.570312 -0.390625 14.4375 -0.078125 C 13.300781 0.222656 12.09375 0.375 10.8125 0.375 C 8.914062 0.375 7.25 -0.0664062 5.8125 -0.953125 C 4.375 -1.847656 3.257812 -3.078125 2.46875 -4.640625 C 1.6875 -6.203125 1.296875 -7.941406 1.296875 -9.859375 C 1.296875 -11.847656 1.707031 -13.617188 2.53125 -15.171875 C 3.351562 -16.722656 4.503906 -17.9375 5.984375 -18.8125 C 7.460938 -19.6875 9.132812 -20.125 11 -20.125 Z M 11 -20.125 "/></g></g></g><g fill="#151515" fill-opacity="1"><g transform="translate(459.625499, 79.245127)"><g><path d="M 18.390625 -20.125 C 19.023438 -20.125 19.550781 -19.910156 19.96875 -19.484375 C 20.394531 -19.066406 20.609375 -18.53125 20.609375 -17.875 L 20.609375 -2.25 C 20.609375 -1.613281 20.394531 -1.078125 19.96875 -0.640625 C 19.550781 -0.210938 19.023438 0 18.390625 0 C 17.742188 0 17.21875 -0.207031 16.8125 -0.625 C 16.40625 -1.039062 16.191406 -1.570312 16.171875 -2.21875 C 15.554688 -1.5 14.722656 -0.882812 13.671875 -0.375 C 12.628906 0.125 11.53125 0.375 10.375 0.375 C 8.675781 0.375 7.132812 -0.0625 5.75 -0.9375 C 4.375 -1.8125 3.285156 -3.023438 2.484375 -4.578125 C 1.691406 -6.128906 1.296875 -7.890625 1.296875 -9.859375 C 1.296875 -11.828125 1.6875 -13.59375 2.46875 -15.15625 C 3.257812 -16.71875 4.335938 -17.9375 5.703125 -18.8125 C 7.066406 -19.6875 8.578125 -20.125 10.234375 -20.125 C 11.410156 -20.125 12.515625 -19.90625 13.546875 -19.46875 C 14.578125 -19.039062 15.453125 -18.492188 16.171875 -17.828125 L 16.171875 -17.875 C 16.171875 -18.507812 16.378906 -19.039062 16.796875 -19.46875 C 17.210938 -19.90625 17.742188 -20.125 18.390625 -20.125 Z M 10.921875 -3.6875 C 12.523438 -3.6875 13.832031 -4.269531 14.84375 -5.4375 C 15.851562 -6.613281 16.359375 -8.085938 16.359375 -9.859375 C 16.359375 -11.628906 15.851562 -13.101562 14.84375 -14.28125 C 13.832031 -15.46875 12.523438 -16.0625 10.921875 -16.0625 C 9.347656 -16.0625 8.054688 -15.46875 7.046875 -14.28125 C 6.035156 -13.101562 5.53125 -11.628906 5.53125 -9.859375 C 5.53125 -8.085938 6.03125 -6.613281 7.03125 -5.4375 C 8.03125 -4.269531 9.328125 -3.6875 10.921875 -3.6875 Z M 10.921875 -3.6875 "/></g></g></g><g fill="#151515" fill-opacity="1"><g transform="translate(241.988654, 101.76957)"><g><path d="M 2.484375 -10.296875 L 2.484375 0 L 1.140625 0 L 1.140625 -10.296875 Z M 2.484375 -10.296875 "/></g></g></g><g fill="#151515" fill-opacity="1"><g transform="translate(246.728361, 101.76957)"><g><path d="M 4.34375 -10.296875 C 5.46875 -10.296875 6.4375 -10.082031 7.25 -9.65625 C 8.070312 -9.238281 8.703125 -8.640625 9.140625 -7.859375 C 9.578125 -7.085938 9.796875 -6.175781 9.796875 -5.125 C 9.796875 -4.070312 9.578125 -3.15625 9.140625 -2.375 C 8.703125 -1.601562 8.070312 -1.015625 7.25 -0.609375 C 6.4375 -0.203125 5.46875 0 4.34375 0 L 1.140625 0 L 1.140625 -10.296875 Z M 4.34375 -1.109375 C 5.664062 -1.109375 6.675781 -1.457031 7.375 -2.15625 C 8.082031 -2.863281 8.4375 -3.851562 8.4375 -5.125 C 8.4375 -6.40625 8.082031 -7.40625 7.375 -8.125 C 6.664062 -8.84375 5.65625 -9.203125 4.34375 -9.203125 L 2.484375 -9.203125 L 2.484375 -1.109375 Z M 4.34375 -1.109375 "/></g></g></g><g fill="#151515" fill-opacity="1"><g transform="translate(258.274452, 101.76957)"><g><path d="M 2.484375 -10.296875 L 2.484375 0 L 1.140625 0 L 1.140625 -10.296875 Z M 2.484375 -10.296875 "/></g></g></g><g fill="#151515" fill-opacity="1"><g transform="translate(263.014159, 101.76957)"><g><path d="M 5.796875 0.109375 C 4.847656 0.109375 3.976562 -0.113281 3.1875 -0.5625 C 2.40625 -1.007812 1.785156 -1.632812 1.328125 -2.4375 C 0.867188 -3.238281 0.640625 -4.144531 0.640625 -5.15625 C 0.640625 -6.15625 0.867188 -7.054688 1.328125 -7.859375 C 1.785156 -8.660156 2.40625 -9.285156 3.1875 -9.734375 C 3.976562 -10.179688 4.847656 -10.40625 5.796875 -10.40625 C 6.765625 -10.40625 7.640625 -10.179688 8.421875 -9.734375 C 9.210938 -9.285156 9.832031 -8.660156 10.28125 -7.859375 C 10.738281 -7.066406 10.96875 -6.164062 10.96875 -5.15625 C 10.96875 -4.132812 10.738281 -3.222656 10.28125 -2.421875 C 9.832031 -1.628906 9.210938 -1.007812 8.421875 -0.5625 C 7.640625 -0.113281 6.765625 0.109375 5.796875 0.109375 Z M 5.796875 -1.0625 C 6.515625 -1.0625 7.160156 -1.226562 7.734375 -1.5625 C 8.316406 -1.894531 8.769531 -2.367188 9.09375 -2.984375 C 9.425781 -3.609375 9.59375 -4.332031 9.59375 -5.15625 C 9.59375 -5.976562 9.425781 -6.695312 9.09375 -7.3125 C 8.769531 -7.925781 8.320312 -8.398438 7.75 -8.734375 C 7.175781 -9.078125 6.523438 -9.25 5.796875 -9.25 C 5.066406 -9.25 4.414062 -9.078125 3.84375 -8.734375 C 3.28125 -8.398438 2.832031 -7.925781 2.5 -7.3125 C 2.175781 -6.695312 2.015625 -5.976562 2.015625 -5.15625 C 2.015625 -4.332031 2.175781 -3.609375 2.5 -2.984375 C 2.832031 -2.367188 3.285156 -1.894531 3.859375 -1.5625 C 4.429688 -1.226562 5.078125 -1.0625 5.796875 -1.0625 Z M 5.796875 -1.0625 "/></g></g></g><g fill="#151515" fill-opacity="1"><g transform="translate(275.726635, 101.76957)"><g><path d="M 11.578125 -10.21875 L 11.578125 0 L 10.234375 0 L 10.234375 -7.625 L 6.84375 0 L 5.890625 0 L 2.484375 -7.640625 L 2.484375 0 L 1.140625 0 L 1.140625 -10.21875 L 2.578125 -10.21875 L 6.359375 -1.765625 L 10.140625 -10.21875 Z M 11.578125 -10.21875 "/></g></g></g><g fill="#151515" fill-opacity="1"><g transform="translate(289.546442, 101.76957)"><g><path d="M 7.21875 -2.28125 L 2.734375 -2.28125 L 1.90625 0 L 0.484375 0 L 4.203125 -10.234375 L 5.765625 -10.234375 L 9.46875 0 L 8.046875 0 Z M 6.84375 -3.375 L 4.96875 -8.578125 L 3.109375 -3.375 Z M 6.84375 -3.375 "/></g></g></g><g fill="#151515" fill-opacity="1"><g transform="translate(300.605308, 101.76957)"><g><path d="M 4.40625 0.109375 C 3.71875 0.109375 3.101562 -0.0078125 2.5625 -0.25 C 2.03125 -0.5 1.613281 -0.835938 1.3125 -1.265625 C 1.007812 -1.691406 0.851562 -2.1875 0.84375 -2.75 L 2.28125 -2.75 C 2.320312 -2.257812 2.515625 -1.847656 2.859375 -1.515625 C 3.210938 -1.191406 3.726562 -1.03125 4.40625 -1.03125 C 5.039062 -1.03125 5.539062 -1.191406 5.90625 -1.515625 C 6.28125 -1.835938 6.46875 -2.25 6.46875 -2.75 C 6.46875 -3.144531 6.359375 -3.460938 6.140625 -3.703125 C 5.921875 -3.953125 5.648438 -4.140625 5.328125 -4.265625 C 5.003906 -4.390625 4.566406 -4.53125 4.015625 -4.6875 C 3.335938 -4.863281 2.789062 -5.039062 2.375 -5.21875 C 1.96875 -5.394531 1.617188 -5.671875 1.328125 -6.046875 C 1.046875 -6.421875 0.90625 -6.929688 0.90625 -7.578125 C 0.90625 -8.140625 1.046875 -8.632812 1.328125 -9.0625 C 1.609375 -9.5 2.007812 -9.832031 2.53125 -10.0625 C 3.050781 -10.300781 3.644531 -10.421875 4.3125 -10.421875 C 5.28125 -10.421875 6.070312 -10.179688 6.6875 -9.703125 C 7.300781 -9.222656 7.644531 -8.582031 7.71875 -7.78125 L 6.25 -7.78125 C 6.195312 -8.175781 5.988281 -8.519531 5.625 -8.8125 C 5.257812 -9.113281 4.773438 -9.265625 4.171875 -9.265625 C 3.617188 -9.265625 3.164062 -9.117188 2.8125 -8.828125 C 2.457031 -8.546875 2.28125 -8.144531 2.28125 -7.625 C 2.28125 -7.25 2.382812 -6.941406 2.59375 -6.703125 C 2.800781 -6.460938 3.0625 -6.28125 3.375 -6.15625 C 3.6875 -6.039062 4.125 -5.90625 4.6875 -5.75 C 5.363281 -5.5625 5.90625 -5.375 6.3125 -5.1875 C 6.726562 -5.007812 7.082031 -4.726562 7.375 -4.34375 C 7.675781 -3.96875 7.828125 -3.457031 7.828125 -2.8125 C 7.828125 -2.300781 7.691406 -1.820312 7.421875 -1.375 C 7.160156 -0.9375 6.769531 -0.578125 6.25 -0.296875 C 5.726562 -0.0234375 5.113281 0.109375 4.40625 0.109375 Z M 4.40625 0.109375 "/></g></g></g><g fill="#151515" fill-opacity="1"><g transform="translate(310.379672, 101.76957)"><g/></g></g><g fill="#151515" fill-opacity="1"><g transform="translate(315.429432, 101.76957)"><g><path d="M 6.75 -5.984375 L 6.75 -4.84375 L 0.859375 -4.84375 L 0.859375 -5.984375 Z M 6.75 -5.984375 "/></g></g></g><g fill="#151515" fill-opacity="1"><g transform="translate(324.672278, 101.76957)"><g/></g></g><g fill="#151515" fill-opacity="1"><g transform="translate(329.722038, 101.76957)"><g><path d="M 4.34375 -10.296875 C 5.46875 -10.296875 6.4375 -10.082031 7.25 -9.65625 C 8.070312 -9.238281 8.703125 -8.640625 9.140625 -7.859375 C 9.578125 -7.085938 9.796875 -6.175781 9.796875 -5.125 C 9.796875 -4.070312 9.578125 -3.15625 9.140625 -2.375 C 8.703125 -1.601562 8.070312 -1.015625 7.25 -0.609375 C 6.4375 -0.203125 5.46875 0 4.34375 0 L 1.140625 0 L 1.140625 -10.296875 Z M 4.34375 -1.109375 C 5.664062 -1.109375 6.675781 -1.457031 7.375 -2.15625 C 8.082031 -2.863281 8.4375 -3.851562 8.4375 -5.125 C 8.4375 -6.40625 8.082031 -7.40625 7.375 -8.125 C 6.664062 -8.84375 5.65625 -9.203125 4.34375 -9.203125 L 2.484375 -9.203125 L 2.484375 -1.109375 Z M 4.34375 -1.109375 "/></g></g></g><g fill="#151515" fill-opacity="1"><g transform="translate(341.268127, 101.76957)"><g><path d="M 2.484375 -9.203125 L 2.484375 -5.765625 L 6.234375 -5.765625 L 6.234375 -4.65625 L 2.484375 -4.65625 L 2.484375 -1.109375 L 6.671875 -1.109375 L 6.671875 0 L 1.140625 0 L 1.140625 -10.3125 L 6.671875 -10.3125 L 6.671875 -9.203125 Z M 2.484375 -9.203125 "/></g></g></g><g fill="#151515" fill-opacity="1"><g transform="translate(349.949928, 101.76957)"><g><path d="M 4.40625 0.109375 C 3.71875 0.109375 3.101562 -0.0078125 2.5625 -0.25 C 2.03125 -0.5 1.613281 -0.835938 1.3125 -1.265625 C 1.007812 -1.691406 0.851562 -2.1875 0.84375 -2.75 L 2.28125 -2.75 C 2.320312 -2.257812 2.515625 -1.847656 2.859375 -1.515625 C 3.210938 -1.191406 3.726562 -1.03125 4.40625 -1.03125 C 5.039062 -1.03125 5.539062 -1.191406 5.90625 -1.515625 C 6.28125 -1.835938 6.46875 -2.25 6.46875 -2.75 C 6.46875 -3.144531 6.359375 -3.460938 6.140625 -3.703125 C 5.921875 -3.953125 5.648438 -4.140625 5.328125 -4.265625 C 5.003906 -4.390625 4.566406 -4.53125 4.015625 -4.6875 C 3.335938 -4.863281 2.789062 -5.039062 2.375 -5.21875 C 1.96875 -5.394531 1.617188 -5.671875 1.328125 -6.046875 C 1.046875 -6.421875 0.90625 -6.929688 0.90625 -7.578125 C 0.90625 -8.140625 1.046875 -8.632812 1.328125 -9.0625 C 1.609375 -9.5 2.007812 -9.832031 2.53125 -10.0625 C 3.050781 -10.300781 3.644531 -10.421875 4.3125 -10.421875 C 5.28125 -10.421875 6.070312 -10.179688 6.6875 -9.703125 C 7.300781 -9.222656 7.644531 -8.582031 7.71875 -7.78125 L 6.25 -7.78125 C 6.195312 -8.175781 5.988281 -8.519531 5.625 -8.8125 C 5.257812 -9.113281 4.773438 -9.265625 4.171875 -9.265625 C 3.617188 -9.265625 3.164062 -9.117188 2.8125 -8.828125 C 2.457031 -8.546875 2.28125 -8.144531 2.28125 -7.625 C 2.28125 -7.25 2.382812 -6.941406 2.59375 -6.703125 C 2.800781 -6.460938 3.0625 -6.28125 3.375 -6.15625 C 3.6875 -6.039062 4.125 -5.90625 4.6875 -5.75 C 5.363281 -5.5625 5.90625 -5.375 6.3125 -5.1875 C 6.726562 -5.007812 7.082031 -4.726562 7.375 -4.34375 C 7.675781 -3.96875 7.828125 -3.457031 7.828125 -2.8125 C 7.828125 -2.300781 7.691406 -1.820312 7.421875 -1.375 C 7.160156 -0.9375 6.769531 -0.578125 6.25 -0.296875 C 5.726562 -0.0234375 5.113281 0.109375 4.40625 0.109375 Z M 4.40625 0.109375 "/></g></g></g><g fill="#151515" fill-opacity="1"><g transform="translate(359.724292, 101.76957)"><g><path d="M 7.21875 -2.28125 L 2.734375 -2.28125 L 1.90625 0 L 0.484375 0 L 4.203125 -10.234375 L 5.765625 -10.234375 L 9.46875 0 L 8.046875 0 Z M 6.84375 -3.375 L 4.96875 -8.578125 L 3.109375 -3.375 Z M 6.84375 -3.375 "/></g></g></g><g fill="#151515" fill-opacity="1"><g transform="translate(370.783164, 101.76957)"><g><path d="M 6.5625 0 L 4.109375 -4.203125 L 2.484375 -4.203125 L 2.484375 0 L 1.140625 0 L 1.140625 -10.296875 L 4.453125 -10.296875 C 5.234375 -10.296875 5.890625 -10.160156 6.421875 -9.890625 C 6.960938 -9.628906 7.363281 -9.269531 7.625 -8.8125 C 7.894531 -8.363281 8.03125 -7.847656 8.03125 -7.265625 C 8.03125 -6.554688 7.828125 -5.929688 7.421875 -5.390625 C 7.015625 -4.847656 6.398438 -4.488281 5.578125 -4.3125 L 8.171875 0 Z M 2.484375 -5.28125 L 4.453125 -5.28125 C 5.179688 -5.28125 5.726562 -5.457031 6.09375 -5.8125 C 6.457031 -6.175781 6.640625 -6.660156 6.640625 -7.265625 C 6.640625 -7.878906 6.457031 -8.351562 6.09375 -8.6875 C 5.738281 -9.019531 5.191406 -9.1875 4.453125 -9.1875 L 2.484375 -9.1875 Z M 2.484375 -5.28125 "/></g></g></g><g fill="#151515" fill-opacity="1"><g transform="translate(380.86759, 101.76957)"><g><path d="M 6.5625 0 L 4.109375 -4.203125 L 2.484375 -4.203125 L 2.484375 0 L 1.140625 0 L 1.140625 -10.296875 L 4.453125 -10.296875 C 5.234375 -10.296875 5.890625 -10.160156 6.421875 -9.890625 C 6.960938 -9.628906 7.363281 -9.269531 7.625 -8.8125 C 7.894531 -8.363281 8.03125 -7.847656 8.03125 -7.265625 C 8.03125 -6.554688 7.828125 -5.929688 7.421875 -5.390625 C 7.015625 -4.847656 6.398438 -4.488281 5.578125 -4.3125 L 8.171875 0 Z M 2.484375 -5.28125 L 4.453125 -5.28125 C 5.179688 -5.28125 5.726562 -5.457031 6.09375 -5.8125 C 6.457031 -6.175781 6.640625 -6.660156 6.640625 -7.265625 C 6.640625 -7.878906 6.457031 -8.351562 6.09375 -8.6875 C 5.738281 -9.019531 5.191406 -9.1875 4.453125 -9.1875 L 2.484375 -9.1875 Z M 2.484375 -5.28125 "/></g></g></g><g fill="#151515" fill-opacity="1"><g transform="translate(390.952016, 101.76957)"><g><path d="M 5.796875 0.109375 C 4.847656 0.109375 3.976562 -0.113281 3.1875 -0.5625 C 2.40625 -1.007812 1.785156 -1.632812 1.328125 -2.4375 C 0.867188 -3.238281 0.640625 -4.144531 0.640625 -5.15625 C 0.640625 -6.15625 0.867188 -7.054688 1.328125 -7.859375 C 1.785156 -8.660156 2.40625 -9.285156 3.1875 -9.734375 C 3.976562 -10.179688 4.847656 -10.40625 5.796875 -10.40625 C 6.765625 -10.40625 7.640625 -10.179688 8.421875 -9.734375 C 9.210938 -9.285156 9.832031 -8.660156 10.28125 -7.859375 C 10.738281 -7.066406 10.96875 -6.164062 10.96875 -5.15625 C 10.96875 -4.132812 10.738281 -3.222656 10.28125 -2.421875 C 9.832031 -1.628906 9.210938 -1.007812 8.421875 -0.5625 C 7.640625 -0.113281 6.765625 0.109375 5.796875 0.109375 Z M 5.796875 -1.0625 C 6.515625 -1.0625 7.160156 -1.226562 7.734375 -1.5625 C 8.316406 -1.894531 8.769531 -2.367188 9.09375 -2.984375 C 9.425781 -3.609375 9.59375 -4.332031 9.59375 -5.15625 C 9.59375 -5.976562 9.425781 -6.695312 9.09375 -7.3125 C 8.769531 -7.925781 8.320312 -8.398438 7.75 -8.734375 C 7.175781 -9.078125 6.523438 -9.25 5.796875 -9.25 C 5.066406 -9.25 4.414062 -9.078125 3.84375 -8.734375 C 3.28125 -8.398438 2.832031 -7.925781 2.5 -7.3125 C 2.175781 -6.695312 2.015625 -5.976562 2.015625 -5.15625 C 2.015625 -4.332031 2.175781 -3.609375 2.5 -2.984375 C 2.832031 -2.367188 3.285156 -1.894531 3.859375 -1.5625 C 4.429688 -1.226562 5.078125 -1.0625 5.796875 -1.0625 Z M 5.796875 -1.0625 "/></g></g></g><g fill="#151515" fill-opacity="1"><g transform="translate(403.664496, 101.76957)"><g><path d="M 2.484375 -1.09375 L 6.078125 -1.09375 L 6.078125 0 L 1.140625 0 L 1.140625 -10.296875 L 2.484375 -10.296875 Z M 2.484375 -1.09375 "/></g></g></g><g fill="#151515" fill-opacity="1"><g transform="translate(411.15038, 101.76957)"><g><path d="M 2.484375 -1.09375 L 6.078125 -1.09375 L 6.078125 0 L 1.140625 0 L 1.140625 -10.296875 L 2.484375 -10.296875 Z M 2.484375 -1.09375 "/></g></g></g><g fill="#151515" fill-opacity="1"><g transform="translate(418.636263, 101.76957)"><g><path d="M 5.796875 0.109375 C 4.847656 0.109375 3.976562 -0.113281 3.1875 -0.5625 C 2.40625 -1.007812 1.785156 -1.632812 1.328125 -2.4375 C 0.867188 -3.238281 0.640625 -4.144531 0.640625 -5.15625 C 0.640625 -6.15625 0.867188 -7.054688 1.328125 -7.859375 C 1.785156 -8.660156 2.40625 -9.285156 3.1875 -9.734375 C 3.976562 -10.179688 4.847656 -10.40625 5.796875 -10.40625 C 6.765625 -10.40625 7.640625 -10.179688 8.421875 -9.734375 C 9.210938 -9.285156 9.832031 -8.660156 10.28125 -7.859375 C 10.738281 -7.066406 10.96875 -6.164062 10.96875 -5.15625 C 10.96875 -4.132812 10.738281 -3.222656 10.28125 -2.421875 C 9.832031 -1.628906 9.210938 -1.007812 8.421875 -0.5625 C 7.640625 -0.113281 6.765625 0.109375 5.796875 0.109375 Z M 5.796875 -1.0625 C 6.515625 -1.0625 7.160156 -1.226562 7.734375 -1.5625 C 8.316406 -1.894531 8.769531 -2.367188 9.09375 -2.984375 C 9.425781 -3.609375 9.59375 -4.332031 9.59375 -5.15625 C 9.59375 -5.976562 9.425781 -6.695312 9.09375 -7.3125 C 8.769531 -7.925781 8.320312 -8.398438 7.75 -8.734375 C 7.175781 -9.078125 6.523438 -9.25 5.796875 -9.25 C 5.066406 -9.25 4.414062 -9.078125 3.84375 -8.734375 C 3.28125 -8.398438 2.832031 -7.925781 2.5 -7.3125 C 2.175781 -6.695312 2.015625 -5.976562 2.015625 -5.15625 C 2.015625 -4.332031 2.175781 -3.609375 2.5 -2.984375 C 2.832031 -2.367188 3.285156 -1.894531 3.859375 -1.5625 C 4.429688 -1.226562 5.078125 -1.0625 5.796875 -1.0625 Z M 5.796875 -1.0625 "/></g></g></g><g fill="#151515" fill-opacity="1"><g transform="translate(431.348744, 101.76957)"><g/></g></g><g fill="#151515" fill-opacity="1"><g transform="translate(436.398511, 101.76957)"><g><path d="M 14.078125 -10.296875 L 11.09375 0 L 9.578125 0 L 7.1875 -8.28125 L 4.703125 0 L 3.21875 0.015625 L 0.34375 -10.296875 L 1.765625 -10.296875 L 4.015625 -1.5625 L 6.5 -10.296875 L 8 -10.296875 L 10.359375 -1.59375 L 12.625 -10.296875 Z M 14.078125 -10.296875 "/></g></g></g><g fill="#151515" fill-opacity="1"><g transform="translate(451.916228, 101.76957)"><g><path d="M 2.484375 -9.203125 L 2.484375 -5.765625 L 6.234375 -5.765625 L 6.234375 -4.65625 L 2.484375 -4.65625 L 2.484375 -1.109375 L 6.671875 -1.109375 L 6.671875 0 L 1.140625 0 L 1.140625 -10.3125 L 6.671875 -10.3125 L 6.671875 -9.203125 Z M 2.484375 -9.203125 "/></g></g></g><g fill="#151515" fill-opacity="1"><g transform="translate(460.598035, 101.76957)"><g><path d="M 6.296875 -5.296875 C 6.660156 -5.242188 7 -5.09375 7.3125 -4.84375 C 7.625 -4.59375 7.867188 -4.285156 8.046875 -3.921875 C 8.234375 -3.554688 8.328125 -3.171875 8.328125 -2.765625 C 8.328125 -2.242188 8.191406 -1.769531 7.921875 -1.34375 C 7.660156 -0.925781 7.273438 -0.597656 6.765625 -0.359375 C 6.265625 -0.117188 5.664062 0 4.96875 0 L 1.140625 0 L 1.140625 -10.296875 L 4.828125 -10.296875 C 5.523438 -10.296875 6.117188 -10.175781 6.609375 -9.9375 C 7.109375 -9.707031 7.476562 -9.394531 7.71875 -9 C 7.96875 -8.613281 8.09375 -8.171875 8.09375 -7.671875 C 8.09375 -7.066406 7.925781 -6.5625 7.59375 -6.15625 C 7.269531 -5.757812 6.835938 -5.472656 6.296875 -5.296875 Z M 2.484375 -5.84375 L 4.734375 -5.84375 C 5.367188 -5.84375 5.859375 -5.988281 6.203125 -6.28125 C 6.546875 -6.582031 6.71875 -6.992188 6.71875 -7.515625 C 6.71875 -8.035156 6.546875 -8.441406 6.203125 -8.734375 C 5.859375 -9.035156 5.359375 -9.1875 4.703125 -9.1875 L 2.484375 -9.1875 Z M 4.859375 -1.109375 C 5.523438 -1.109375 6.046875 -1.265625 6.421875 -1.578125 C 6.796875 -1.890625 6.984375 -2.328125 6.984375 -2.890625 C 6.984375 -3.460938 6.785156 -3.910156 6.390625 -4.234375 C 5.992188 -4.566406 5.46875 -4.734375 4.8125 -4.734375 L 2.484375 -4.734375 L 2.484375 -1.109375 Z M 4.859375 -1.109375 "/></g></g></g></svg>