<?xml version="1.0" standalone="no"?>
<!DOCTYPE svg PUBLIC "-//W3C//DTD SVG 20010904//EN"
 "http://www.w3.org/TR/2001/REC-SVG-20010904/DTD/svg10.dtd">
<svg version="1.0" xmlns="http://www.w3.org/2000/svg"
 width="400.000000pt" height="155.000000pt" viewBox="0 0 400.000000 155.000000"
 preserveAspectRatio="xMidYMid meet">

<g transform="translate(0.000000,155.000000) scale(0.100000,-0.100000)"
fill="#000000" stroke="none">
<path d="M1755 1160 c-8 -13 4 -32 16 -25 12 8 12 35 0 35 -6 0 -13 -4 -16
-10z"/>
<path d="M1537 1140 c-9 -23 -29 -211 -24 -217 3 -2 31 1 62 7 31 6 63 9 70 6
8 -3 17 -1 21 5 4 7 -18 9 -60 8 -36 -1 -68 0 -71 3 -3 2 0 41 6 86 11 79 9
134 -4 102z"/>
<path d="M2839 1146 c-3 -3 -27 -7 -54 -9 l-50 -5 -13 -102 c-9 -71 -9 -107
-2 -114 7 -7 10 0 10 23 0 53 14 68 70 76 27 4 50 11 50 16 0 11 -2 11 -58 0
-51 -10 -58 -2 -45 50 9 33 11 34 66 39 32 3 58 10 58 15 0 11 -24 19 -32 11z"/>
<path d="M565 1121 c-109 -31 -174 -75 -212 -139 -21 -36 -25 -52 -21 -101 5
-71 37 -119 110 -164 27 -17 48 -37 48 -47 0 -20 -26 -45 -58 -55 -39 -12 -13
-25 49 -25 64 0 115 16 138 44 12 14 24 16 60 11 62 -8 195 9 265 35 144 55
216 168 175 277 -25 68 -117 134 -231 167 -76 22 -243 20 -323 -3z"/>
<path d="M2435 1059 c-42 -37 -65 -100 -45 -124 17 -21 24 -19 64 15 l34 31 7
-31 c4 -17 13 -30 21 -30 12 0 13 4 3 22 -7 13 -9 41 -5 71 4 40 2 53 -12 63
-24 19 -27 18 -67 -17z m61 -3 c8 -21 -24 -82 -53 -101 -52 -34 -57 25 -7 84
28 33 51 40 60 17z"/>
<path d="M3118 1075 c-37 -21 -70 -78 -66 -116 4 -42 16 -45 62 -14 45 30 44
30 48 3 2 -12 9 -23 17 -26 10 -3 11 1 5 19 -4 13 -7 46 -5 72 2 44 -10 78
-28 77 -3 -1 -18 -7 -33 -15z m42 -33 c0 -31 -53 -102 -76 -102 -19 0 -18 49
2 80 37 55 74 66 74 22z"/>
<path d="M3498 1063 c-49 -53 -64 -117 -33 -143 18 -15 69 -5 87 17 12 15 11
15 -9 5 -31 -17 -70 -15 -77 4 -7 18 17 80 41 107 17 17 18 17 35 -5 17 -22
18 -22 18 -2 0 19 -17 44 -30 44 -4 0 -18 -12 -32 -27z"/>
<path d="M3678 1075 c-37 -21 -70 -78 -66 -116 4 -42 16 -45 62 -14 45 30 44
30 48 3 2 -12 9 -24 17 -26 11 -4 12 0 6 14 -5 11 -8 43 -7 73 2 48 -9 82 -27
81 -3 -1 -18 -7 -33 -15z m42 -29 c0 -26 -36 -83 -62 -100 -29 -17 -44 6 -28
43 27 67 90 107 90 57z"/>
<path d="M2070 1058 c-38 -26 -73 -87 -64 -112 9 -23 35 -20 79 10 l38 25 -7
-47 c-12 -87 -44 -111 -106 -79 -17 9 -30 11 -30 6 0 -15 69 -43 91 -36 31 10
49 48 65 136 8 45 16 85 19 87 9 9 -17 32 -35 32 -9 0 -32 -10 -50 -22z m60
-18 c0 -29 -58 -90 -86 -90 -13 0 -24 6 -24 13 0 33 81 114 102 101 4 -3 8
-14 8 -24z"/>
<path d="M2906 1058 c-8 -31 -8 -133 1 -141 3 -4 17 19 29 51 27 65 57 96 87
86 14 -4 18 -2 15 7 -13 39 -64 13 -100 -51 l-19 -35 5 53 c5 52 -6 72 -18 30z"/>
<path d="M1721 998 c-8 -49 -9 -74 -1 -82 5 -5 10 -8 10 -5 1 2 2 27 4 54 2
28 7 62 11 78 4 15 3 27 -2 27 -6 0 -15 -32 -22 -72z"/>
<path d="M1816 1058 c-3 -7 -7 -41 -10 -76 -7 -79 5 -79 52 1 42 72 72 74 72
6 0 -32 19 -59 35 -52 14 5 14 7 1 17 -8 6 -18 31 -23 56 -7 36 -13 46 -31 48
-17 3 -29 -8 -53 -47 -18 -28 -34 -51 -36 -51 -2 0 0 25 3 55 6 49 0 75 -10
43z"/>
<path d="M2200 1013 c-19 -89 16 -121 69 -64 l29 31 7 -30 c12 -54 20 -39 20
36 0 75 -8 95 -19 49 -8 -32 -63 -95 -83 -95 -13 0 -14 9 -10 43 3 23 9 52 13
65 4 13 2 22 -4 22 -6 0 -16 -26 -22 -57z"/>
<path d="M3246 1023 c-9 -64 -8 -103 3 -103 5 0 23 24 40 54 46 83 68 85 78 8
6 -43 20 -56 44 -41 11 7 11 9 -3 9 -11 0 -20 10 -23 28 -20 95 -43 102 -94
27 l-34 -50 6 52 c7 65 -8 80 -17 16z"/>
<path d="M2026 725 c-3 -10 -4 -20 -1 -23 3 -3 5 1 6 9 0 8 9 -4 20 -26 10
-22 16 -29 13 -15 -4 14 -12 36 -19 49 -11 21 -13 22 -19 6z"/>
<path d="M2553 690 c0 -25 2 -35 4 -22 2 12 2 32 0 45 -2 12 -4 2 -4 -23z"/>
<path d="M2930 710 c0 -5 5 -10 10 -10 6 0 10 5 10 10 0 6 -4 10 -10 10 -5 0
-10 -4 -10 -10z"/>
<path d="M2254 695 c-3 -8 -4 -20 -2 -27 3 -7 7 -1 10 15 6 29 1 36 -8 12z"/>
<path d="M2298 683 c5 -21 7 -23 10 -9 2 10 0 22 -6 28 -6 6 -7 0 -4 -19z"/>
<path d="M2331 678 c2 -28 2 -29 6 -8 3 14 10 28 17 32 7 5 5 8 -6 8 -14 0
-18 -8 -17 -32z"/>
<path d="M2372 680 c0 -19 2 -27 5 -17 2 9 2 25 0 35 -3 9 -5 1 -5 -18z"/>
<path d="M2432 680 c0 -19 2 -27 5 -17 2 9 2 25 0 35 -3 9 -5 1 -5 -18z"/>
<path d="M2460 703 c0 -5 10 -18 23 -29 l22 -19 -20 25 c-11 14 -21 27 -22 29
-2 2 -3 0 -3 -6z"/>
<path d="M2612 680 c0 -19 2 -27 5 -17 2 9 2 25 0 35 -3 9 -5 1 -5 -18z"/>
<path d="M2679 678 c4 -28 6 -29 9 -9 2 13 0 27 -5 32 -6 6 -7 -3 -4 -23z"/>
<path d="M2748 675 c2 -19 6 -35 8 -35 2 0 4 16 4 35 0 19 -4 35 -8 35 -4 0
-6 -16 -4 -35z"/>
<path d="M2780 686 c0 -14 4 -27 8 -30 5 -3 6 8 4 25 -5 35 -12 38 -12 5z"/>
<path d="M2822 680 c0 -19 2 -27 5 -17 2 9 2 25 0 35 -3 9 -5 1 -5 -18z"/>
<path d="M2852 680 c0 -19 2 -27 5 -17 2 9 2 25 0 35 -3 9 -5 1 -5 -18z"/>
<path d="M2972 680 c0 -19 2 -27 5 -17 2 9 2 25 0 35 -3 9 -5 1 -5 -18z"/>
<path d="M3007 703 c-9 -9 -9 -41 1 -46 4 -3 7 8 7 24 0 16 0 29 -1 29 0 0 -4
-3 -7 -7z"/>
<path d="M3091 694 c0 -11 3 -14 6 -6 3 7 2 16 -1 19 -3 4 -6 -2 -5 -13z"/>
<path d="M2094 681 c20 -22 26 -25 26 -13 0 4 -10 13 -22 21 -23 14 -23 14 -4
-8z"/>
<path d="M2215 680 c10 -11 20 -20 23 -20 3 0 -3 9 -13 20 -10 11 -20 20 -23
20 -3 0 3 -9 13 -20z"/>
<path d="M3135 680 c10 -11 20 -20 23 -20 3 0 -3 9 -13 20 -10 11 -20 20 -23
20 -3 0 3 -9 13 -20z"/>
<path d="M2006 675 c-9 -26 -7 -32 5 -12 6 10 9 21 6 23 -2 3 -7 -2 -11 -11z"/>
<path d="M2130 681 c0 -6 4 -12 8 -15 5 -3 9 1 9 9 0 8 -4 15 -9 15 -4 0 -8
-4 -8 -9z"/>
<path d="M2700 681 c0 -6 4 -13 10 -16 6 -3 7 1 4 9 -7 18 -14 21 -14 7z"/>
<path d="M2881 687 c2 -1 13 -9 24 -17 19 -14 19 -14 6 3 -7 9 -18 17 -24 17
-6 0 -8 -1 -6 -3z"/>
<path d="M3061 664 c0 -11 3 -14 6 -6 3 7 2 16 -1 19 -3 4 -6 -2 -5 -13z"/>
</g>
</svg>
