<svg xmlns="http://www.w3.org/2000/svg" xmlns:xlink="http://www.w3.org/1999/xlink" width="800" zoomAndPan="magnify" viewBox="0 0 600 149.999998" height="200" preserveAspectRatio="xMidYMid meet" version="1.0"><defs><g/><clipPath id="e21d24aed8"><path d="M 116.128906 22.085938 L 221.878906 22.085938 L 221.878906 127.835938 L 116.128906 127.835938 Z M 116.128906 22.085938 " clip-rule="nonzero"/></clipPath><clipPath id="a68a902274"><path d="M 169.003906 22.085938 C 139.804688 22.085938 116.128906 45.761719 116.128906 74.960938 C 116.128906 104.164062 139.804688 127.835938 169.003906 127.835938 C 198.207031 127.835938 221.878906 104.164062 221.878906 74.960938 C 221.878906 45.761719 198.207031 22.085938 169.003906 22.085938 " clip-rule="nonzero"/></clipPath><clipPath id="0cf5d34733"><path d="M 138.328125 48 L 199.828125 48 L 199.828125 95 L 138.328125 95 Z M 138.328125 48 " clip-rule="nonzero"/></clipPath><clipPath id="f748631953"><path d="M 149 99 L 189 99 L 189 105.785156 L 149 105.785156 Z M 149 99 " clip-rule="nonzero"/></clipPath><clipPath id="adacafca85"><path d="M 138.328125 86 L 199.828125 86 L 199.828125 95 L 138.328125 95 Z M 138.328125 86 " clip-rule="nonzero"/></clipPath><clipPath id="d569ff242d"><path d="M 145 44.285156 L 163 44.285156 L 163 63 L 145 63 Z M 145 44.285156 " clip-rule="nonzero"/></clipPath><clipPath id="4697a77342"><path d="M 149 44.285156 L 159 44.285156 L 159 55 L 149 55 Z M 149 44.285156 " clip-rule="nonzero"/></clipPath></defs><g clip-path="url(#e21d24aed8)"><g clip-path="url(#a68a902274)"><path stroke-linecap="butt" transform="matrix(0.749502, 0, 0, 0.749502, 116.130327, 22.087501)" fill="none" stroke-linejoin="miter" d="M 70.544983 -0.00208567 C 31.586804 -0.00208567 -0.00189563 31.586614 -0.00189563 70.544793 C -0.00189563 109.508185 31.586804 141.091672 70.544983 141.091672 C 109.508375 141.091672 141.091862 109.508185 141.091862 70.544793 C 141.091862 31.586614 109.508375 -0.00208567 70.544983 -0.00208567 " stroke="#5e17eb" stroke-width="20" stroke-opacity="1" stroke-miterlimit="4"/></g></g><g clip-path="url(#0cf5d34733)"><path fill="#1bd527" d="M 196.386719 94.863281 L 141.769531 94.863281 C 141.335938 94.863281 140.917969 94.777344 140.515625 94.613281 C 140.113281 94.445312 139.757812 94.210938 139.453125 93.902344 C 139.144531 93.59375 138.90625 93.242188 138.742188 92.839844 C 138.574219 92.4375 138.492188 92.019531 138.492188 91.585938 L 138.492188 52.257812 C 138.492188 51.824219 138.574219 51.40625 138.742188 51.003906 C 138.90625 50.605469 139.144531 50.25 139.453125 49.941406 C 139.757812 49.636719 140.113281 49.398438 140.515625 49.230469 C 140.917969 49.066406 141.335938 48.984375 141.769531 48.984375 L 146.140625 48.984375 C 146.285156 48.984375 146.421875 49.011719 146.558594 49.066406 C 146.691406 49.121094 146.808594 49.199219 146.910156 49.300781 C 147.011719 49.40625 147.09375 49.523438 147.148438 49.65625 C 147.203125 49.789062 147.230469 49.929688 147.230469 50.074219 C 147.230469 50.21875 147.203125 50.359375 147.148438 50.492188 C 147.09375 50.625 147.011719 50.746094 146.910156 50.847656 C 146.808594 50.949219 146.691406 51.027344 146.558594 51.085938 C 146.421875 51.140625 146.285156 51.167969 146.140625 51.167969 L 141.769531 51.167969 C 141.625 51.167969 141.484375 51.195312 141.351562 51.25 C 141.21875 51.304688 141.097656 51.386719 140.996094 51.488281 C 140.894531 51.589844 140.816406 51.707031 140.761719 51.839844 C 140.703125 51.976562 140.675781 52.113281 140.675781 52.257812 L 140.675781 91.585938 C 140.675781 91.730469 140.703125 91.867188 140.761719 92.003906 C 140.816406 92.136719 140.894531 92.253906 140.996094 92.355469 C 141.097656 92.460938 141.21875 92.539062 141.351562 92.59375 C 141.484375 92.648438 141.625 92.675781 141.769531 92.675781 L 196.386719 92.675781 C 196.53125 92.675781 196.671875 92.648438 196.804688 92.59375 C 196.9375 92.539062 197.058594 92.460938 197.160156 92.355469 C 197.261719 92.253906 197.339844 92.136719 197.398438 92.003906 C 197.453125 91.867188 197.480469 91.730469 197.480469 91.585938 L 197.480469 52.257812 C 197.480469 52.113281 197.453125 51.976562 197.398438 51.839844 C 197.339844 51.707031 197.261719 51.589844 197.160156 51.488281 C 197.058594 51.386719 196.9375 51.304688 196.804688 51.25 C 196.671875 51.195312 196.53125 51.167969 196.386719 51.167969 L 161.433594 51.167969 C 161.285156 51.167969 161.148438 51.140625 161.015625 51.085938 C 160.878906 51.027344 160.761719 50.949219 160.660156 50.847656 C 160.558594 50.746094 160.476562 50.625 160.421875 50.492188 C 160.367188 50.359375 160.339844 50.21875 160.339844 50.074219 C 160.339844 49.929688 160.367188 49.789062 160.421875 49.65625 C 160.476562 49.523438 160.558594 49.40625 160.660156 49.300781 C 160.761719 49.199219 160.878906 49.121094 161.015625 49.066406 C 161.148438 49.011719 161.285156 48.984375 161.433594 48.984375 L 196.386719 48.984375 C 196.820312 48.984375 197.238281 49.066406 197.640625 49.230469 C 198.042969 49.398438 198.398438 49.636719 198.703125 49.941406 C 199.011719 50.25 199.25 50.605469 199.414062 51.003906 C 199.582031 51.40625 199.664062 51.824219 199.664062 52.257812 L 199.664062 91.585938 C 199.664062 92.019531 199.582031 92.4375 199.414062 92.839844 C 199.25 93.242188 199.011719 93.59375 198.703125 93.902344 C 198.398438 94.210938 198.042969 94.445312 197.640625 94.613281 C 197.238281 94.777344 196.820312 94.863281 196.386719 94.863281 Z M 196.386719 94.863281 " fill-opacity="1" fill-rule="nonzero"/></g><g clip-path="url(#f748631953)"><path fill="#1bd527" d="M 185.464844 105.785156 L 152.691406 105.785156 C 152.257812 105.785156 151.839844 105.703125 151.4375 105.535156 C 151.039062 105.371094 150.683594 105.132812 150.375 104.824219 C 150.066406 104.519531 149.832031 104.164062 149.664062 103.761719 C 149.5 103.359375 149.414062 102.941406 149.414062 102.507812 C 149.414062 102.074219 149.5 101.65625 149.664062 101.253906 C 149.832031 100.851562 150.066406 100.5 150.375 100.191406 C 150.683594 99.882812 151.039062 99.648438 151.4375 99.480469 C 151.839844 99.316406 152.257812 99.230469 152.691406 99.230469 L 185.464844 99.230469 C 185.898438 99.230469 186.316406 99.316406 186.71875 99.480469 C 187.121094 99.648438 187.472656 99.882812 187.78125 100.191406 C 188.089844 100.5 188.324219 100.851562 188.492188 101.253906 C 188.65625 101.65625 188.742188 102.074219 188.742188 102.507812 C 188.742188 102.941406 188.65625 103.359375 188.492188 103.761719 C 188.324219 104.164062 188.089844 104.519531 187.78125 104.824219 C 187.472656 105.132812 187.121094 105.371094 186.71875 105.535156 C 186.316406 105.703125 185.898438 105.785156 185.464844 105.785156 Z M 152.691406 101.417969 C 152.546875 101.417969 152.410156 101.445312 152.273438 101.5 C 152.140625 101.554688 152.023438 101.632812 151.921875 101.734375 C 151.816406 101.839844 151.738281 101.957031 151.683594 102.089844 C 151.628906 102.222656 151.601562 102.363281 151.601562 102.507812 C 151.601562 102.652344 151.628906 102.792969 151.683594 102.925781 C 151.738281 103.058594 151.816406 103.179688 151.921875 103.28125 C 152.023438 103.382812 152.140625 103.460938 152.273438 103.519531 C 152.410156 103.574219 152.546875 103.601562 152.691406 103.601562 L 185.464844 103.601562 C 185.609375 103.601562 185.746094 103.574219 185.882812 103.519531 C 186.015625 103.460938 186.132812 103.382812 186.234375 103.28125 C 186.339844 103.179688 186.417969 103.058594 186.472656 102.925781 C 186.527344 102.792969 186.554688 102.652344 186.554688 102.507812 C 186.554688 102.363281 186.527344 102.222656 186.472656 102.089844 C 186.417969 101.957031 186.339844 101.839844 186.234375 101.734375 C 186.132812 101.632812 186.015625 101.554688 185.882812 101.5 C 185.746094 101.445312 185.609375 101.417969 185.464844 101.417969 Z M 152.691406 101.417969 " fill-opacity="1" fill-rule="nonzero"/></g><path fill="#1bd527" d="M 179.464844 101.417969 L 158.953125 101.417969 L 161.867188 92.675781 L 176.550781 92.675781 Z M 161.988281 99.230469 L 176.429688 99.230469 L 174.976562 94.863281 L 163.441406 94.863281 Z M 161.988281 99.230469 " fill-opacity="1" fill-rule="nonzero"/><path fill="#1bd527" d="M 177.816406 83.9375 C 177.671875 83.9375 177.53125 83.910156 177.398438 83.855469 C 177.265625 83.800781 177.148438 83.722656 177.042969 83.617188 C 176.941406 83.515625 176.863281 83.398438 176.808594 83.265625 C 176.753906 83.128906 176.726562 82.992188 176.726562 82.847656 L 176.726562 63.183594 C 176.726562 63.039062 176.695312 62.898438 176.640625 62.765625 C 176.585938 62.632812 176.507812 62.511719 176.40625 62.410156 C 176.300781 62.308594 176.183594 62.230469 176.050781 62.175781 C 175.917969 62.117188 175.777344 62.089844 175.632812 62.089844 L 170.171875 62.089844 C 170.027344 62.089844 169.886719 62.117188 169.753906 62.175781 C 169.617188 62.230469 169.5 62.308594 169.398438 62.410156 C 169.296875 62.511719 169.21875 62.632812 169.160156 62.765625 C 169.105469 62.898438 169.078125 63.039062 169.078125 63.183594 L 169.078125 82.847656 C 169.078125 82.992188 169.050781 83.128906 168.996094 83.265625 C 168.941406 83.398438 168.859375 83.515625 168.757812 83.617188 C 168.65625 83.722656 168.539062 83.800781 168.402344 83.855469 C 168.269531 83.910156 168.128906 83.9375 167.984375 83.9375 C 167.839844 83.9375 167.703125 83.910156 167.566406 83.855469 C 167.433594 83.800781 167.316406 83.722656 167.214844 83.617188 C 167.109375 83.515625 167.03125 83.398438 166.976562 83.265625 C 166.921875 83.128906 166.894531 82.992188 166.894531 82.847656 L 166.894531 63.183594 C 166.894531 62.75 166.976562 62.332031 167.144531 61.929688 C 167.308594 61.527344 167.546875 61.171875 167.851562 60.867188 C 168.160156 60.558594 168.515625 60.320312 168.917969 60.15625 C 169.316406 59.988281 169.734375 59.90625 170.171875 59.90625 L 175.632812 59.90625 C 176.066406 59.90625 176.484375 59.988281 176.886719 60.15625 C 177.289062 60.320312 177.640625 60.558594 177.949219 60.867188 C 178.257812 61.171875 178.492188 61.527344 178.660156 61.929688 C 178.828125 62.332031 178.910156 62.75 178.910156 63.183594 L 178.910156 82.847656 C 178.910156 82.992188 178.882812 83.128906 178.828125 83.265625 C 178.769531 83.398438 178.691406 83.515625 178.589844 83.617188 C 178.488281 83.722656 178.367188 83.800781 178.234375 83.855469 C 178.101562 83.910156 177.960938 83.9375 177.816406 83.9375 Z M 177.816406 83.9375 " fill-opacity="1" fill-rule="nonzero"/><path fill="#1bd527" d="M 177.816406 66.460938 L 172.355469 66.460938 C 172.210938 66.460938 172.070312 66.433594 171.9375 66.378906 C 171.804688 66.320312 171.683594 66.242188 171.582031 66.140625 C 171.480469 66.039062 171.402344 65.921875 171.347656 65.785156 C 171.289062 65.652344 171.261719 65.511719 171.261719 65.367188 C 171.261719 65.222656 171.289062 65.082031 171.347656 64.949219 C 171.402344 64.816406 171.480469 64.699219 171.582031 64.59375 C 171.683594 64.492188 171.804688 64.414062 171.9375 64.359375 C 172.070312 64.304688 172.210938 64.277344 172.355469 64.277344 L 177.816406 64.277344 C 177.960938 64.277344 178.101562 64.304688 178.234375 64.359375 C 178.367188 64.414062 178.488281 64.492188 178.589844 64.59375 C 178.691406 64.699219 178.769531 64.816406 178.828125 64.949219 C 178.882812 65.082031 178.910156 65.222656 178.910156 65.367188 C 178.910156 65.511719 178.882812 65.652344 178.828125 65.785156 C 178.769531 65.921875 178.691406 66.039062 178.589844 66.140625 C 178.488281 66.242188 178.367188 66.320312 178.234375 66.378906 C 178.101562 66.433594 177.960938 66.460938 177.816406 66.460938 Z M 177.816406 66.460938 " fill-opacity="1" fill-rule="nonzero"/><path fill="#1bd527" d="M 177.816406 70.828125 L 172.355469 70.828125 C 172.210938 70.828125 172.070312 70.800781 171.9375 70.746094 C 171.804688 70.691406 171.683594 70.613281 171.582031 70.511719 C 171.480469 70.40625 171.402344 70.289062 171.347656 70.15625 C 171.289062 70.023438 171.261719 69.882812 171.261719 69.738281 C 171.261719 69.59375 171.289062 69.453125 171.347656 69.320312 C 171.402344 69.1875 171.480469 69.066406 171.582031 68.964844 C 171.683594 68.863281 171.804688 68.785156 171.9375 68.726562 C 172.070312 68.671875 172.210938 68.644531 172.355469 68.644531 L 177.816406 68.644531 C 177.960938 68.644531 178.101562 68.671875 178.234375 68.726562 C 178.367188 68.785156 178.488281 68.863281 178.589844 68.964844 C 178.691406 69.066406 178.769531 69.1875 178.828125 69.320312 C 178.882812 69.453125 178.910156 69.59375 178.910156 69.738281 C 178.910156 69.882812 178.882812 70.023438 178.828125 70.15625 C 178.769531 70.289062 178.691406 70.40625 178.589844 70.511719 C 178.488281 70.613281 178.367188 70.691406 178.234375 70.746094 C 178.101562 70.800781 177.960938 70.828125 177.816406 70.828125 Z M 177.816406 70.828125 " fill-opacity="1" fill-rule="nonzero"/><path fill="#1bd527" d="M 177.816406 75.199219 L 172.355469 75.199219 C 172.210938 75.199219 172.070312 75.171875 171.9375 75.117188 C 171.804688 75.0625 171.683594 74.980469 171.582031 74.878906 C 171.480469 74.777344 171.402344 74.660156 171.347656 74.523438 C 171.289062 74.390625 171.261719 74.25 171.261719 74.105469 C 171.261719 73.960938 171.289062 73.824219 171.347656 73.6875 C 171.402344 73.554688 171.480469 73.4375 171.582031 73.335938 C 171.683594 73.230469 171.804688 73.152344 171.9375 73.097656 C 172.070312 73.042969 172.210938 73.015625 172.355469 73.015625 L 177.816406 73.015625 C 177.960938 73.015625 178.101562 73.042969 178.234375 73.097656 C 178.367188 73.152344 178.488281 73.230469 178.589844 73.335938 C 178.691406 73.4375 178.769531 73.554688 178.828125 73.6875 C 178.882812 73.824219 178.910156 73.960938 178.910156 74.105469 C 178.910156 74.25 178.882812 74.390625 178.828125 74.523438 C 178.769531 74.660156 178.691406 74.777344 178.589844 74.878906 C 178.488281 74.980469 178.367188 75.0625 178.234375 75.117188 C 178.101562 75.171875 177.960938 75.199219 177.816406 75.199219 Z M 177.816406 75.199219 " fill-opacity="1" fill-rule="nonzero"/><path fill="#1bd527" d="M 192.019531 83.9375 C 191.875 83.9375 191.734375 83.910156 191.601562 83.855469 C 191.464844 83.800781 191.347656 83.722656 191.246094 83.617188 C 191.144531 83.515625 191.0625 83.398438 191.007812 83.265625 C 190.953125 83.128906 190.925781 82.992188 190.925781 82.847656 L 190.925781 75.199219 C 190.925781 75.054688 190.898438 74.914062 190.84375 74.78125 C 190.785156 74.648438 190.707031 74.53125 190.605469 74.425781 C 190.503906 74.324219 190.386719 74.246094 190.25 74.191406 C 190.117188 74.132812 189.976562 74.105469 189.832031 74.105469 L 186.554688 74.105469 C 186.410156 74.105469 186.273438 74.132812 186.136719 74.191406 C 186.003906 74.246094 185.886719 74.324219 185.785156 74.425781 C 185.679688 74.53125 185.601562 74.648438 185.546875 74.78125 C 185.492188 74.914062 185.464844 75.054688 185.464844 75.199219 L 185.464844 82.847656 C 185.464844 82.992188 185.4375 83.128906 185.378906 83.265625 C 185.324219 83.398438 185.246094 83.515625 185.144531 83.617188 C 185.042969 83.722656 184.921875 83.800781 184.789062 83.855469 C 184.65625 83.910156 184.515625 83.9375 184.371094 83.9375 C 184.226562 83.9375 184.085938 83.910156 183.953125 83.855469 C 183.820312 83.800781 183.703125 83.722656 183.597656 83.617188 C 183.496094 83.515625 183.417969 83.398438 183.363281 83.265625 C 183.308594 83.128906 183.277344 82.992188 183.277344 82.847656 L 183.277344 75.199219 C 183.277344 74.765625 183.363281 74.347656 183.527344 73.945312 C 183.695312 73.542969 183.929688 73.1875 184.238281 72.882812 C 184.546875 72.574219 184.902344 72.339844 185.300781 72.171875 C 185.703125 72.003906 186.121094 71.921875 186.554688 71.921875 L 189.832031 71.921875 C 190.269531 71.921875 190.6875 72.003906 191.085938 72.171875 C 191.488281 72.339844 191.84375 72.574219 192.152344 72.882812 C 192.457031 73.1875 192.695312 73.542969 192.859375 73.945312 C 193.027344 74.347656 193.109375 74.765625 193.109375 75.199219 L 193.109375 82.847656 C 193.109375 82.992188 193.082031 83.128906 193.027344 83.265625 C 192.972656 83.398438 192.894531 83.515625 192.789062 83.617188 C 192.6875 83.722656 192.570312 83.800781 192.4375 83.855469 C 192.300781 83.910156 192.164062 83.9375 192.019531 83.9375 Z M 192.019531 83.9375 " fill-opacity="1" fill-rule="nonzero"/><path fill="#1bd527" d="M 193.109375 78.476562 L 183.277344 78.476562 L 183.277344 75.199219 C 183.277344 74.765625 183.363281 74.347656 183.527344 73.945312 C 183.695312 73.542969 183.929688 73.1875 184.238281 72.882812 C 184.546875 72.574219 184.902344 72.339844 185.300781 72.171875 C 185.703125 72.003906 186.121094 71.921875 186.554688 71.921875 L 189.832031 71.921875 C 190.269531 71.921875 190.6875 72.003906 191.085938 72.171875 C 191.488281 72.339844 191.84375 72.574219 192.152344 72.882812 C 192.457031 73.1875 192.695312 73.542969 192.859375 73.945312 C 193.027344 74.347656 193.109375 74.765625 193.109375 75.199219 Z M 185.464844 76.292969 L 190.925781 76.292969 L 190.925781 75.199219 C 190.925781 75.054688 190.898438 74.914062 190.84375 74.78125 C 190.785156 74.648438 190.707031 74.53125 190.605469 74.425781 C 190.503906 74.324219 190.386719 74.246094 190.25 74.191406 C 190.117188 74.132812 189.976562 74.105469 189.832031 74.105469 L 186.554688 74.105469 C 186.410156 74.105469 186.273438 74.132812 186.136719 74.191406 C 186.003906 74.246094 185.886719 74.324219 185.785156 74.425781 C 185.679688 74.53125 185.601562 74.648438 185.546875 74.78125 C 185.492188 74.914062 185.464844 75.054688 185.464844 75.199219 Z M 185.464844 76.292969 " fill-opacity="1" fill-rule="nonzero"/><g clip-path="url(#adacafca85)"><path fill="#1bd527" d="M 196.386719 94.863281 L 141.769531 94.863281 C 141.335938 94.863281 140.917969 94.777344 140.515625 94.613281 C 140.113281 94.445312 139.757812 94.210938 139.453125 93.902344 C 139.144531 93.59375 138.90625 93.242188 138.742188 92.839844 C 138.574219 92.4375 138.492188 92.019531 138.492188 91.585938 L 138.492188 86.121094 L 199.664062 86.121094 L 199.664062 91.585938 C 199.664062 92.019531 199.582031 92.4375 199.414062 92.839844 C 199.25 93.242188 199.011719 93.59375 198.703125 93.902344 C 198.398438 94.210938 198.042969 94.445312 197.640625 94.613281 C 197.238281 94.777344 196.820312 94.863281 196.386719 94.863281 Z M 140.675781 88.308594 L 140.675781 91.585938 C 140.675781 91.730469 140.703125 91.867188 140.761719 92.003906 C 140.816406 92.136719 140.894531 92.253906 140.996094 92.355469 C 141.097656 92.460938 141.21875 92.539062 141.351562 92.59375 C 141.484375 92.648438 141.625 92.675781 141.769531 92.675781 L 196.386719 92.675781 C 196.53125 92.675781 196.671875 92.648438 196.804688 92.59375 C 196.9375 92.539062 197.058594 92.460938 197.160156 92.355469 C 197.261719 92.253906 197.339844 92.136719 197.398438 92.003906 C 197.453125 91.867188 197.480469 91.730469 197.480469 91.585938 L 197.480469 88.308594 Z M 140.675781 88.308594 " fill-opacity="1" fill-rule="nonzero"/></g><g clip-path="url(#d569ff242d)"><path fill="#1bd527" d="M 161.496094 62.089844 L 146.203125 62.089844 C 145.800781 62.089844 145.488281 61.921875 145.277344 61.578125 C 145.046875 61.222656 145.027344 60.859375 145.222656 60.484375 L 152.867188 44.929688 C 152.957031 44.742188 153.09375 44.589844 153.269531 44.480469 C 153.449219 44.371094 153.640625 44.3125 153.851562 44.3125 C 154.058594 44.3125 154.253906 44.371094 154.429688 44.480469 C 154.609375 44.589844 154.742188 44.742188 154.832031 44.929688 L 162.480469 60.484375 C 162.671875 60.859375 162.65625 61.222656 162.425781 61.578125 C 162.210938 61.921875 161.902344 62.089844 161.496094 62.089844 Z M 147.964844 59.90625 L 159.738281 59.90625 L 153.851562 47.890625 Z M 147.964844 59.90625 " fill-opacity="1" fill-rule="nonzero"/></g><g clip-path="url(#4697a77342)"><path fill="#1bd527" d="M 153.851562 54.445312 C 152.359375 54.453125 151.027344 53.996094 149.851562 53.078125 C 149.648438 52.921875 149.515625 52.714844 149.457031 52.464844 C 149.394531 52.210938 149.421875 51.96875 149.535156 51.734375 L 152.867188 44.960938 C 152.957031 44.773438 153.09375 44.625 153.269531 44.511719 C 153.449219 44.402344 153.640625 44.347656 153.851562 44.347656 C 154.058594 44.347656 154.253906 44.402344 154.429688 44.511719 C 154.609375 44.625 154.742188 44.773438 154.832031 44.960938 L 158.15625 51.769531 C 158.269531 52 158.292969 52.242188 158.234375 52.496094 C 158.175781 52.75 158.042969 52.953125 157.839844 53.113281 C 156.664062 54.015625 155.332031 54.457031 153.851562 54.445312 Z M 151.929688 51.84375 C 152.535156 52.140625 153.175781 52.289062 153.851562 52.289062 C 154.527344 52.289062 155.167969 52.140625 155.773438 51.84375 L 153.851562 47.945312 Z M 151.929688 51.84375 " fill-opacity="1" fill-rule="nonzero"/></g><path fill="#1bd527" d="M 150.574219 83.9375 C 150.429688 83.9375 150.289062 83.910156 150.15625 83.855469 C 150.023438 83.800781 149.902344 83.722656 149.800781 83.617188 C 149.699219 83.515625 149.621094 83.398438 149.566406 83.265625 C 149.507812 83.128906 149.480469 82.992188 149.480469 82.847656 L 149.480469 62.089844 L 147.296875 62.089844 L 147.296875 82.847656 C 147.296875 82.992188 147.269531 83.128906 147.214844 83.265625 C 147.15625 83.398438 147.078125 83.515625 146.976562 83.617188 C 146.875 83.722656 146.757812 83.800781 146.621094 83.855469 C 146.488281 83.910156 146.347656 83.9375 146.203125 83.9375 C 146.058594 83.9375 145.921875 83.910156 145.785156 83.855469 C 145.652344 83.800781 145.535156 83.722656 145.433594 83.617188 C 145.328125 83.515625 145.25 83.398438 145.195312 83.265625 C 145.140625 83.128906 145.113281 82.992188 145.113281 82.847656 L 145.113281 61 C 145.113281 60.855469 145.140625 60.714844 145.195312 60.582031 C 145.25 60.445312 145.328125 60.328125 145.433594 60.226562 C 145.535156 60.125 145.652344 60.042969 145.785156 59.988281 C 145.921875 59.933594 146.058594 59.90625 146.203125 59.90625 L 150.574219 59.90625 C 150.71875 59.90625 150.859375 59.933594 150.992188 59.988281 C 151.125 60.042969 151.242188 60.125 151.347656 60.226562 C 151.449219 60.328125 151.527344 60.445312 151.582031 60.582031 C 151.636719 60.714844 151.667969 60.855469 151.667969 61 L 151.667969 82.847656 C 151.667969 82.992188 151.636719 83.128906 151.582031 83.265625 C 151.527344 83.398438 151.449219 83.515625 151.347656 83.617188 C 151.242188 83.722656 151.125 83.800781 150.992188 83.855469 C 150.859375 83.910156 150.71875 83.9375 150.574219 83.9375 Z M 150.574219 83.9375 " fill-opacity="1" fill-rule="nonzero"/><path fill="#1bd527" d="M 161.496094 83.9375 C 161.351562 83.9375 161.214844 83.910156 161.078125 83.855469 C 160.945312 83.800781 160.828125 83.722656 160.726562 83.617188 C 160.621094 83.515625 160.542969 83.398438 160.488281 83.265625 C 160.433594 83.128906 160.40625 82.992188 160.40625 82.847656 L 160.40625 62.089844 L 158.21875 62.089844 L 158.21875 82.847656 C 158.21875 82.992188 158.191406 83.128906 158.136719 83.265625 C 158.082031 83.398438 158.003906 83.515625 157.898438 83.617188 C 157.796875 83.722656 157.679688 83.800781 157.546875 83.855469 C 157.410156 83.910156 157.273438 83.9375 157.128906 83.9375 C 156.984375 83.9375 156.84375 83.910156 156.710938 83.855469 C 156.574219 83.800781 156.457031 83.722656 156.355469 83.617188 C 156.253906 83.515625 156.175781 83.398438 156.117188 83.265625 C 156.0625 83.128906 156.035156 82.992188 156.035156 82.847656 L 156.035156 61 C 156.035156 60.855469 156.0625 60.714844 156.117188 60.582031 C 156.175781 60.445312 156.253906 60.328125 156.355469 60.226562 C 156.457031 60.125 156.574219 60.042969 156.710938 59.988281 C 156.84375 59.933594 156.984375 59.90625 157.128906 59.90625 L 161.496094 59.90625 C 161.640625 59.90625 161.78125 59.933594 161.914062 59.988281 C 162.050781 60.042969 162.167969 60.125 162.269531 60.226562 C 162.371094 60.328125 162.449219 60.445312 162.507812 60.582031 C 162.5625 60.714844 162.589844 60.855469 162.589844 61 L 162.589844 82.847656 C 162.589844 82.992188 162.5625 83.128906 162.507812 83.265625 C 162.449219 83.398438 162.371094 83.515625 162.269531 83.617188 C 162.167969 83.722656 162.050781 83.800781 161.914062 83.855469 C 161.78125 83.910156 161.640625 83.9375 161.496094 83.9375 Z M 161.496094 83.9375 " fill-opacity="1" fill-rule="nonzero"/><g fill="#151515" fill-opacity="1"><g transform="translate(229.000199, 79.245127)"><g><path d="M 17.015625 -4.3125 C 17.660156 -4.3125 18.195312 -4.109375 18.625 -3.703125 C 19.050781 -3.296875 19.265625 -2.773438 19.265625 -2.140625 C 19.265625 -1.523438 19.050781 -1.015625 18.625 -0.609375 C 18.195312 -0.203125 17.660156 0 17.015625 0 L 5.015625 0 C 4.378906 0 3.84375 -0.210938 3.40625 -0.640625 C 2.976562 -1.078125 2.765625 -1.613281 2.765625 -2.25 L 2.765625 -23.59375 C 2.765625 -24.226562 2.984375 -24.757812 3.421875 -25.1875 C 3.867188 -25.625 4.4375 -25.84375 5.125 -25.84375 C 5.75 -25.84375 6.28125 -25.625 6.71875 -25.1875 C 7.164062 -24.757812 7.390625 -24.226562 7.390625 -23.59375 L 7.390625 -4.3125 Z M 17.015625 -4.3125 "/></g></g></g><g fill="#151515" fill-opacity="1"><g transform="translate(249.747985, 79.245127)"><g><path d="M 6.578125 -2.25 C 6.578125 -1.613281 6.363281 -1.078125 5.9375 -0.640625 C 5.519531 -0.210938 4.992188 0 4.359375 0 C 3.710938 0 3.179688 -0.210938 2.765625 -0.640625 C 2.347656 -1.078125 2.140625 -1.613281 2.140625 -2.25 L 2.140625 -17.5 C 2.140625 -18.144531 2.347656 -18.679688 2.765625 -19.109375 C 3.179688 -19.535156 3.710938 -19.75 4.359375 -19.75 C 4.992188 -19.75 5.519531 -19.535156 5.9375 -19.109375 C 6.363281 -18.679688 6.578125 -18.144531 6.578125 -17.5 Z M 4.328125 -22.15625 C 3.484375 -22.15625 2.890625 -22.289062 2.546875 -22.5625 C 2.203125 -22.832031 2.03125 -23.3125 2.03125 -24 L 2.03125 -24.703125 C 2.03125 -25.390625 2.210938 -25.867188 2.578125 -26.140625 C 2.953125 -26.410156 3.546875 -26.546875 4.359375 -26.546875 C 5.222656 -26.546875 5.828125 -26.410156 6.171875 -26.140625 C 6.515625 -25.867188 6.6875 -25.390625 6.6875 -24.703125 L 6.6875 -24 C 6.6875 -23.28125 6.503906 -22.789062 6.140625 -22.53125 C 5.785156 -22.28125 5.179688 -22.15625 4.328125 -22.15625 Z M 4.328125 -22.15625 "/></g></g></g><g fill="#151515" fill-opacity="1"><g transform="translate(258.460579, 79.245127)"><g><path d="M 12.953125 -20.125 C 15.460938 -20.125 17.195312 -19.378906 18.15625 -17.890625 C 19.125 -16.398438 19.609375 -14.335938 19.609375 -11.703125 L 19.609375 -2.25 C 19.609375 -1.613281 19.394531 -1.078125 18.96875 -0.640625 C 18.550781 -0.210938 18.023438 0 17.390625 0 C 16.753906 0 16.222656 -0.210938 15.796875 -0.640625 C 15.378906 -1.078125 15.171875 -1.613281 15.171875 -2.25 L 15.171875 -11.703125 C 15.171875 -13.054688 14.882812 -14.117188 14.3125 -14.890625 C 13.75 -15.671875 12.78125 -16.0625 11.40625 -16.0625 C 9.976562 -16.0625 8.859375 -15.648438 8.046875 -14.828125 C 7.234375 -14.003906 6.828125 -12.960938 6.828125 -11.703125 L 6.828125 -2.25 C 6.828125 -1.613281 6.617188 -1.078125 6.203125 -0.640625 C 5.785156 -0.210938 5.253906 0 4.609375 0 C 3.972656 0 3.445312 -0.210938 3.03125 -0.640625 C 2.613281 -1.078125 2.40625 -1.613281 2.40625 -2.25 L 2.40625 -17.5 C 2.40625 -18.144531 2.613281 -18.679688 3.03125 -19.109375 C 3.445312 -19.535156 3.972656 -19.75 4.609375 -19.75 C 5.253906 -19.75 5.785156 -19.535156 6.203125 -19.109375 C 6.617188 -18.679688 6.828125 -18.144531 6.828125 -17.5 L 6.828125 -16.875 C 7.492188 -17.757812 8.363281 -18.519531 9.4375 -19.15625 C 10.507812 -19.800781 11.679688 -20.125 12.953125 -20.125 Z M 12.953125 -20.125 "/></g></g></g><g fill="#151515" fill-opacity="1"><g transform="translate(280.463575, 79.245127)"><g><path d="M 18.75 -20.125 C 19.394531 -20.125 19.925781 -19.910156 20.34375 -19.484375 C 20.757812 -19.066406 20.96875 -18.53125 20.96875 -17.875 L 20.96875 -1.4375 C 20.96875 1.5625 20.035156 3.78125 18.171875 5.21875 C 16.316406 6.664062 13.960938 7.390625 11.109375 7.390625 C 10.367188 7.390625 9.351562 7.265625 8.0625 7.015625 C 6.769531 6.765625 5.851562 6.519531 5.3125 6.28125 C 4.101562 5.757812 3.5 5.046875 3.5 4.140625 C 3.5 3.960938 3.539062 3.765625 3.625 3.546875 C 3.769531 3.003906 4.019531 2.59375 4.375 2.3125 C 4.726562 2.03125 5.113281 1.890625 5.53125 1.890625 C 5.78125 1.890625 6.015625 1.925781 6.234375 2 C 6.335938 2.019531 6.945312 2.242188 8.0625 2.671875 C 9.1875 3.109375 10.203125 3.328125 11.109375 3.328125 C 12.929688 3.328125 14.289062 2.960938 15.1875 2.234375 C 16.09375 1.503906 16.546875 0.476562 16.546875 -0.84375 L 16.546875 -2.625 C 16.003906 -1.863281 15.179688 -1.171875 14.078125 -0.546875 C 12.984375 0.0664062 11.8125 0.375 10.5625 0.375 C 8.832031 0.375 7.257812 -0.0625 5.84375 -0.9375 C 4.4375 -1.8125 3.328125 -3.023438 2.515625 -4.578125 C 1.703125 -6.128906 1.296875 -7.890625 1.296875 -9.859375 C 1.296875 -11.828125 1.691406 -13.59375 2.484375 -15.15625 C 3.285156 -16.71875 4.378906 -17.9375 5.765625 -18.8125 C 7.160156 -19.6875 8.707031 -20.125 10.40625 -20.125 C 11.664062 -20.125 12.835938 -19.863281 13.921875 -19.34375 C 15.003906 -18.832031 15.878906 -18.207031 16.546875 -17.46875 L 16.546875 -17.875 C 16.546875 -18.507812 16.753906 -19.039062 17.171875 -19.46875 C 17.585938 -19.90625 18.113281 -20.125 18.75 -20.125 Z M 11.109375 -3.6875 C 12.765625 -3.6875 14.113281 -4.269531 15.15625 -5.4375 C 16.195312 -6.613281 16.71875 -8.085938 16.71875 -9.859375 C 16.71875 -11.628906 16.195312 -13.101562 15.15625 -14.28125 C 14.113281 -15.46875 12.765625 -16.0625 11.109375 -16.0625 C 9.460938 -16.0625 8.117188 -15.46875 7.078125 -14.28125 C 6.046875 -13.101562 5.53125 -11.628906 5.53125 -9.859375 C 5.53125 -8.085938 6.046875 -6.613281 7.078125 -5.4375 C 8.117188 -4.269531 9.460938 -3.6875 11.109375 -3.6875 Z M 11.109375 -3.6875 "/></g></g></g><g fill="#151515" fill-opacity="1"><g transform="translate(303.832525, 79.245127)"><g><path d="M 17.0625 -19.75 C 17.695312 -19.75 18.222656 -19.535156 18.640625 -19.109375 C 19.054688 -18.679688 19.265625 -18.144531 19.265625 -17.5 L 19.265625 -8.125 C 19.265625 -5.46875 18.53125 -3.382812 17.0625 -1.875 C 15.601562 -0.375 13.519531 0.375 10.8125 0.375 C 8.101562 0.375 6.023438 -0.375 4.578125 -1.875 C 3.128906 -3.382812 2.40625 -5.46875 2.40625 -8.125 L 2.40625 -17.5 C 2.40625 -18.144531 2.613281 -18.679688 3.03125 -19.109375 C 3.445312 -19.535156 3.972656 -19.75 4.609375 -19.75 C 5.253906 -19.75 5.785156 -19.535156 6.203125 -19.109375 C 6.617188 -18.679688 6.828125 -18.144531 6.828125 -17.5 L 6.828125 -8.125 C 6.828125 -6.625 7.160156 -5.507812 7.828125 -4.78125 C 8.492188 -4.050781 9.488281 -3.6875 10.8125 -3.6875 C 12.164062 -3.6875 13.175781 -4.050781 13.84375 -4.78125 C 14.507812 -5.507812 14.84375 -6.625 14.84375 -8.125 L 14.84375 -17.5 C 14.84375 -18.144531 15.050781 -18.679688 15.46875 -19.109375 C 15.882812 -19.535156 16.414062 -19.75 17.0625 -19.75 Z M 17.0625 -19.75 "/></g></g></g><g fill="#151515" fill-opacity="1"><g transform="translate(325.503259, 79.245127)"><g><path d="M 18.390625 -20.125 C 19.023438 -20.125 19.550781 -19.910156 19.96875 -19.484375 C 20.394531 -19.066406 20.609375 -18.53125 20.609375 -17.875 L 20.609375 -2.25 C 20.609375 -1.613281 20.394531 -1.078125 19.96875 -0.640625 C 19.550781 -0.210938 19.023438 0 18.390625 0 C 17.742188 0 17.21875 -0.207031 16.8125 -0.625 C 16.40625 -1.039062 16.191406 -1.570312 16.171875 -2.21875 C 15.554688 -1.5 14.722656 -0.882812 13.671875 -0.375 C 12.628906 0.125 11.53125 0.375 10.375 0.375 C 8.675781 0.375 7.132812 -0.0625 5.75 -0.9375 C 4.375 -1.8125 3.285156 -3.023438 2.484375 -4.578125 C 1.691406 -6.128906 1.296875 -7.890625 1.296875 -9.859375 C 1.296875 -11.828125 1.6875 -13.59375 2.46875 -15.15625 C 3.257812 -16.71875 4.335938 -17.9375 5.703125 -18.8125 C 7.066406 -19.6875 8.578125 -20.125 10.234375 -20.125 C 11.410156 -20.125 12.515625 -19.90625 13.546875 -19.46875 C 14.578125 -19.039062 15.453125 -18.492188 16.171875 -17.828125 L 16.171875 -17.875 C 16.171875 -18.507812 16.378906 -19.039062 16.796875 -19.46875 C 17.210938 -19.90625 17.742188 -20.125 18.390625 -20.125 Z M 10.921875 -3.6875 C 12.523438 -3.6875 13.832031 -4.269531 14.84375 -5.4375 C 15.851562 -6.613281 16.359375 -8.085938 16.359375 -9.859375 C 16.359375 -11.628906 15.851562 -13.101562 14.84375 -14.28125 C 13.832031 -15.46875 12.523438 -16.0625 10.921875 -16.0625 C 9.347656 -16.0625 8.054688 -15.46875 7.046875 -14.28125 C 6.035156 -13.101562 5.53125 -11.628906 5.53125 -9.859375 C 5.53125 -8.085938 6.03125 -6.613281 7.03125 -5.4375 C 8.03125 -4.269531 9.328125 -3.6875 10.921875 -3.6875 Z M 10.921875 -3.6875 "/></g></g></g><g fill="#151515" fill-opacity="1"><g transform="translate(348.503038, 79.245127)"><g/></g></g><g fill="#151515" fill-opacity="1"><g transform="translate(358.840013, 79.245127)"><g><path d="M 7.390625 -21.59375 L 7.390625 -15.09375 L 15.359375 -15.09375 C 15.992188 -15.09375 16.523438 -14.890625 16.953125 -14.484375 C 17.390625 -14.078125 17.609375 -13.554688 17.609375 -12.921875 C 17.609375 -12.378906 17.390625 -11.898438 16.953125 -11.484375 C 16.523438 -11.066406 15.992188 -10.859375 15.359375 -10.859375 L 7.390625 -10.859375 L 7.390625 -2.25 C 7.390625 -1.613281 7.160156 -1.078125 6.703125 -0.640625 C 6.242188 -0.210938 5.707031 0 5.09375 0 C 4.40625 0 3.84375 -0.207031 3.40625 -0.625 C 2.976562 -1.039062 2.765625 -1.582031 2.765625 -2.25 L 2.765625 -23.59375 C 2.765625 -24.226562 2.976562 -24.757812 3.40625 -25.1875 C 3.84375 -25.625 4.378906 -25.84375 5.015625 -25.84375 L 17.015625 -25.84375 C 17.660156 -25.84375 18.195312 -25.640625 18.625 -25.234375 C 19.050781 -24.828125 19.265625 -24.304688 19.265625 -23.671875 C 19.265625 -23.128906 19.050781 -22.644531 18.625 -22.21875 C 18.195312 -21.800781 17.660156 -21.59375 17.015625 -21.59375 Z M 7.390625 -21.59375 "/></g></g></g><g fill="#151515" fill-opacity="1"><g transform="translate(379.587799, 79.245127)"><g><path d="M 12.671875 -20.125 C 13.398438 -20.125 14.015625 -19.910156 14.515625 -19.484375 C 15.023438 -19.066406 15.28125 -18.578125 15.28125 -18.015625 C 15.28125 -17.253906 15.082031 -16.679688 14.6875 -16.296875 C 14.300781 -15.921875 13.835938 -15.734375 13.296875 -15.734375 C 12.921875 -15.734375 12.5 -15.816406 12.03125 -15.984375 C 11.957031 -16.015625 11.789062 -16.066406 11.53125 -16.140625 C 11.28125 -16.210938 11.003906 -16.25 10.703125 -16.25 C 10.066406 -16.25 9.453125 -16.050781 8.859375 -15.65625 C 8.265625 -15.257812 7.773438 -14.660156 7.390625 -13.859375 C 7.015625 -13.066406 6.828125 -12.113281 6.828125 -11 L 6.828125 -2.25 C 6.828125 -1.613281 6.617188 -1.078125 6.203125 -0.640625 C 5.785156 -0.210938 5.253906 0 4.609375 0 C 3.972656 0 3.445312 -0.210938 3.03125 -0.640625 C 2.613281 -1.078125 2.40625 -1.613281 2.40625 -2.25 L 2.40625 -17.5 C 2.40625 -18.144531 2.613281 -18.679688 3.03125 -19.109375 C 3.445312 -19.535156 3.972656 -19.75 4.609375 -19.75 C 5.253906 -19.75 5.785156 -19.535156 6.203125 -19.109375 C 6.617188 -18.679688 6.828125 -18.144531 6.828125 -17.5 L 6.828125 -17.015625 C 7.398438 -18.023438 8.210938 -18.796875 9.265625 -19.328125 C 10.328125 -19.859375 11.460938 -20.125 12.671875 -20.125 Z M 12.671875 -20.125 "/></g></g></g><g fill="#151515" fill-opacity="1"><g transform="translate(395.61011, 79.245127)"><g><path d="M 18.390625 -20.125 C 19.023438 -20.125 19.550781 -19.910156 19.96875 -19.484375 C 20.394531 -19.066406 20.609375 -18.53125 20.609375 -17.875 L 20.609375 -2.25 C 20.609375 -1.613281 20.394531 -1.078125 19.96875 -0.640625 C 19.550781 -0.210938 19.023438 0 18.390625 0 C 17.742188 0 17.21875 -0.207031 16.8125 -0.625 C 16.40625 -1.039062 16.191406 -1.570312 16.171875 -2.21875 C 15.554688 -1.5 14.722656 -0.882812 13.671875 -0.375 C 12.628906 0.125 11.53125 0.375 10.375 0.375 C 8.675781 0.375 7.132812 -0.0625 5.75 -0.9375 C 4.375 -1.8125 3.285156 -3.023438 2.484375 -4.578125 C 1.691406 -6.128906 1.296875 -7.890625 1.296875 -9.859375 C 1.296875 -11.828125 1.6875 -13.59375 2.46875 -15.15625 C 3.257812 -16.71875 4.335938 -17.9375 5.703125 -18.8125 C 7.066406 -19.6875 8.578125 -20.125 10.234375 -20.125 C 11.410156 -20.125 12.515625 -19.90625 13.546875 -19.46875 C 14.578125 -19.039062 15.453125 -18.492188 16.171875 -17.828125 L 16.171875 -17.875 C 16.171875 -18.507812 16.378906 -19.039062 16.796875 -19.46875 C 17.210938 -19.90625 17.742188 -20.125 18.390625 -20.125 Z M 10.921875 -3.6875 C 12.523438 -3.6875 13.832031 -4.269531 14.84375 -5.4375 C 15.851562 -6.613281 16.359375 -8.085938 16.359375 -9.859375 C 16.359375 -11.628906 15.851562 -13.101562 14.84375 -14.28125 C 13.832031 -15.46875 12.523438 -16.0625 10.921875 -16.0625 C 9.347656 -16.0625 8.054688 -15.46875 7.046875 -14.28125 C 6.035156 -13.101562 5.53125 -11.628906 5.53125 -9.859375 C 5.53125 -8.085938 6.03125 -6.613281 7.03125 -5.4375 C 8.03125 -4.269531 9.328125 -3.6875 10.921875 -3.6875 Z M 10.921875 -3.6875 "/></g></g></g><g fill="#151515" fill-opacity="1"><g transform="translate(418.609888, 79.245127)"><g><path d="M 12.953125 -20.125 C 15.460938 -20.125 17.195312 -19.378906 18.15625 -17.890625 C 19.125 -16.398438 19.609375 -14.335938 19.609375 -11.703125 L 19.609375 -2.25 C 19.609375 -1.613281 19.394531 -1.078125 18.96875 -0.640625 C 18.550781 -0.210938 18.023438 0 17.390625 0 C 16.753906 0 16.222656 -0.210938 15.796875 -0.640625 C 15.378906 -1.078125 15.171875 -1.613281 15.171875 -2.25 L 15.171875 -11.703125 C 15.171875 -13.054688 14.882812 -14.117188 14.3125 -14.890625 C 13.75 -15.671875 12.78125 -16.0625 11.40625 -16.0625 C 9.976562 -16.0625 8.859375 -15.648438 8.046875 -14.828125 C 7.234375 -14.003906 6.828125 -12.960938 6.828125 -11.703125 L 6.828125 -2.25 C 6.828125 -1.613281 6.617188 -1.078125 6.203125 -0.640625 C 5.785156 -0.210938 5.253906 0 4.609375 0 C 3.972656 0 3.445312 -0.210938 3.03125 -0.640625 C 2.613281 -1.078125 2.40625 -1.613281 2.40625 -2.25 L 2.40625 -17.5 C 2.40625 -18.144531 2.613281 -18.679688 3.03125 -19.109375 C 3.445312 -19.535156 3.972656 -19.75 4.609375 -19.75 C 5.253906 -19.75 5.785156 -19.535156 6.203125 -19.109375 C 6.617188 -18.679688 6.828125 -18.144531 6.828125 -17.5 L 6.828125 -16.875 C 7.492188 -17.757812 8.363281 -18.519531 9.4375 -19.15625 C 10.507812 -19.800781 11.679688 -20.125 12.953125 -20.125 Z M 12.953125 -20.125 "/></g></g></g><g fill="#151515" fill-opacity="1"><g transform="translate(440.612884, 79.245127)"><g><path d="M 11 -20.125 C 13.09375 -20.125 14.78125 -19.796875 16.0625 -19.140625 C 17.34375 -18.492188 17.984375 -17.628906 17.984375 -16.546875 C 17.984375 -16.003906 17.820312 -15.53125 17.5 -15.125 C 17.175781 -14.71875 16.757812 -14.515625 16.25 -14.515625 C 15.851562 -14.515625 15.53125 -14.566406 15.28125 -14.671875 C 15.039062 -14.785156 14.800781 -14.929688 14.5625 -15.109375 C 14.332031 -15.296875 14.101562 -15.453125 13.875 -15.578125 C 13.632812 -15.703125 13.273438 -15.8125 12.796875 -15.90625 C 12.316406 -16.007812 11.925781 -16.0625 11.625 -16.0625 C 9.78125 -16.0625 8.332031 -15.488281 7.28125 -14.34375 C 6.238281 -13.195312 5.71875 -11.703125 5.71875 -9.859375 C 5.71875 -8.085938 6.242188 -6.613281 7.296875 -5.4375 C 8.359375 -4.269531 9.71875 -3.6875 11.375 -3.6875 C 12.582031 -3.6875 13.476562 -3.835938 14.0625 -4.140625 C 14.207031 -4.210938 14.410156 -4.335938 14.671875 -4.515625 C 14.929688 -4.703125 15.171875 -4.84375 15.390625 -4.9375 C 15.617188 -5.039062 15.890625 -5.09375 16.203125 -5.09375 C 16.816406 -5.09375 17.300781 -4.894531 17.65625 -4.5 C 18.019531 -4.101562 18.203125 -3.597656 18.203125 -2.984375 C 18.203125 -2.398438 17.859375 -1.847656 17.171875 -1.328125 C 16.484375 -0.804688 15.570312 -0.390625 14.4375 -0.078125 C 13.300781 0.222656 12.09375 0.375 10.8125 0.375 C 8.914062 0.375 7.25 -0.0664062 5.8125 -0.953125 C 4.375 -1.847656 3.257812 -3.078125 2.46875 -4.640625 C 1.6875 -6.203125 1.296875 -7.941406 1.296875 -9.859375 C 1.296875 -11.847656 1.707031 -13.617188 2.53125 -15.171875 C 3.351562 -16.722656 4.503906 -17.9375 5.984375 -18.8125 C 7.460938 -19.6875 9.132812 -20.125 11 -20.125 Z M 11 -20.125 "/></g></g></g><g fill="#151515" fill-opacity="1"><g transform="translate(459.62553, 79.245127)"><g><path d="M 18.390625 -20.125 C 19.023438 -20.125 19.550781 -19.910156 19.96875 -19.484375 C 20.394531 -19.066406 20.609375 -18.53125 20.609375 -17.875 L 20.609375 -2.25 C 20.609375 -1.613281 20.394531 -1.078125 19.96875 -0.640625 C 19.550781 -0.210938 19.023438 0 18.390625 0 C 17.742188 0 17.21875 -0.207031 16.8125 -0.625 C 16.40625 -1.039062 16.191406 -1.570312 16.171875 -2.21875 C 15.554688 -1.5 14.722656 -0.882812 13.671875 -0.375 C 12.628906 0.125 11.53125 0.375 10.375 0.375 C 8.675781 0.375 7.132812 -0.0625 5.75 -0.9375 C 4.375 -1.8125 3.285156 -3.023438 2.484375 -4.578125 C 1.691406 -6.128906 1.296875 -7.890625 1.296875 -9.859375 C 1.296875 -11.828125 1.6875 -13.59375 2.46875 -15.15625 C 3.257812 -16.71875 4.335938 -17.9375 5.703125 -18.8125 C 7.066406 -19.6875 8.578125 -20.125 10.234375 -20.125 C 11.410156 -20.125 12.515625 -19.90625 13.546875 -19.46875 C 14.578125 -19.039062 15.453125 -18.492188 16.171875 -17.828125 L 16.171875 -17.875 C 16.171875 -18.507812 16.378906 -19.039062 16.796875 -19.46875 C 17.210938 -19.90625 17.742188 -20.125 18.390625 -20.125 Z M 10.921875 -3.6875 C 12.523438 -3.6875 13.832031 -4.269531 14.84375 -5.4375 C 15.851562 -6.613281 16.359375 -8.085938 16.359375 -9.859375 C 16.359375 -11.628906 15.851562 -13.101562 14.84375 -14.28125 C 13.832031 -15.46875 12.523438 -16.0625 10.921875 -16.0625 C 9.347656 -16.0625 8.054688 -15.46875 7.046875 -14.28125 C 6.035156 -13.101562 5.53125 -11.628906 5.53125 -9.859375 C 5.53125 -8.085938 6.03125 -6.613281 7.03125 -5.4375 C 8.03125 -4.269531 9.328125 -3.6875 10.921875 -3.6875 Z M 10.921875 -3.6875 "/></g></g></g><g fill="#151515" fill-opacity="1"><g transform="translate(241.988654, 101.769563)"><g><path d="M 2.484375 -10.296875 L 2.484375 0 L 1.140625 0 L 1.140625 -10.296875 Z M 2.484375 -10.296875 "/></g></g></g><g fill="#151515" fill-opacity="1"><g transform="translate(246.728361, 101.769563)"><g><path d="M 4.34375 -10.296875 C 5.46875 -10.296875 6.4375 -10.082031 7.25 -9.65625 C 8.070312 -9.238281 8.703125 -8.640625 9.140625 -7.859375 C 9.578125 -7.085938 9.796875 -6.175781 9.796875 -5.125 C 9.796875 -4.070312 9.578125 -3.15625 9.140625 -2.375 C 8.703125 -1.601562 8.070312 -1.015625 7.25 -0.609375 C 6.4375 -0.203125 5.46875 0 4.34375 0 L 1.140625 0 L 1.140625 -10.296875 Z M 4.34375 -1.109375 C 5.664062 -1.109375 6.675781 -1.457031 7.375 -2.15625 C 8.082031 -2.863281 8.4375 -3.851562 8.4375 -5.125 C 8.4375 -6.40625 8.082031 -7.40625 7.375 -8.125 C 6.664062 -8.84375 5.65625 -9.203125 4.34375 -9.203125 L 2.484375 -9.203125 L 2.484375 -1.109375 Z M 4.34375 -1.109375 "/></g></g></g><g fill="#151515" fill-opacity="1"><g transform="translate(258.274452, 101.769563)"><g><path d="M 2.484375 -10.296875 L 2.484375 0 L 1.140625 0 L 1.140625 -10.296875 Z M 2.484375 -10.296875 "/></g></g></g><g fill="#151515" fill-opacity="1"><g transform="translate(263.014159, 101.769563)"><g><path d="M 5.796875 0.109375 C 4.847656 0.109375 3.976562 -0.113281 3.1875 -0.5625 C 2.40625 -1.007812 1.785156 -1.632812 1.328125 -2.4375 C 0.867188 -3.238281 0.640625 -4.144531 0.640625 -5.15625 C 0.640625 -6.15625 0.867188 -7.054688 1.328125 -7.859375 C 1.785156 -8.660156 2.40625 -9.285156 3.1875 -9.734375 C 3.976562 -10.179688 4.847656 -10.40625 5.796875 -10.40625 C 6.765625 -10.40625 7.640625 -10.179688 8.421875 -9.734375 C 9.210938 -9.285156 9.832031 -8.660156 10.28125 -7.859375 C 10.738281 -7.066406 10.96875 -6.164062 10.96875 -5.15625 C 10.96875 -4.132812 10.738281 -3.222656 10.28125 -2.421875 C 9.832031 -1.628906 9.210938 -1.007812 8.421875 -0.5625 C 7.640625 -0.113281 6.765625 0.109375 5.796875 0.109375 Z M 5.796875 -1.0625 C 6.515625 -1.0625 7.160156 -1.226562 7.734375 -1.5625 C 8.316406 -1.894531 8.769531 -2.367188 9.09375 -2.984375 C 9.425781 -3.609375 9.59375 -4.332031 9.59375 -5.15625 C 9.59375 -5.976562 9.425781 -6.695312 9.09375 -7.3125 C 8.769531 -7.925781 8.320312 -8.398438 7.75 -8.734375 C 7.175781 -9.078125 6.523438 -9.25 5.796875 -9.25 C 5.066406 -9.25 4.414062 -9.078125 3.84375 -8.734375 C 3.28125 -8.398438 2.832031 -7.925781 2.5 -7.3125 C 2.175781 -6.695312 2.015625 -5.976562 2.015625 -5.15625 C 2.015625 -4.332031 2.175781 -3.609375 2.5 -2.984375 C 2.832031 -2.367188 3.285156 -1.894531 3.859375 -1.5625 C 4.429688 -1.226562 5.078125 -1.0625 5.796875 -1.0625 Z M 5.796875 -1.0625 "/></g></g></g><g fill="#151515" fill-opacity="1"><g transform="translate(275.726635, 101.769563)"><g><path d="M 11.578125 -10.21875 L 11.578125 0 L 10.234375 0 L 10.234375 -7.625 L 6.84375 0 L 5.890625 0 L 2.484375 -7.640625 L 2.484375 0 L 1.140625 0 L 1.140625 -10.21875 L 2.578125 -10.21875 L 6.359375 -1.765625 L 10.140625 -10.21875 Z M 11.578125 -10.21875 "/></g></g></g><g fill="#151515" fill-opacity="1"><g transform="translate(289.546442, 101.769563)"><g><path d="M 7.21875 -2.28125 L 2.734375 -2.28125 L 1.90625 0 L 0.484375 0 L 4.203125 -10.234375 L 5.765625 -10.234375 L 9.46875 0 L 8.046875 0 Z M 6.84375 -3.375 L 4.96875 -8.578125 L 3.109375 -3.375 Z M 6.84375 -3.375 "/></g></g></g><g fill="#151515" fill-opacity="1"><g transform="translate(300.605308, 101.769563)"><g><path d="M 4.40625 0.109375 C 3.71875 0.109375 3.101562 -0.0078125 2.5625 -0.25 C 2.03125 -0.5 1.613281 -0.835938 1.3125 -1.265625 C 1.007812 -1.691406 0.851562 -2.1875 0.84375 -2.75 L 2.28125 -2.75 C 2.320312 -2.257812 2.515625 -1.847656 2.859375 -1.515625 C 3.210938 -1.191406 3.726562 -1.03125 4.40625 -1.03125 C 5.039062 -1.03125 5.539062 -1.191406 5.90625 -1.515625 C 6.28125 -1.835938 6.46875 -2.25 6.46875 -2.75 C 6.46875 -3.144531 6.359375 -3.460938 6.140625 -3.703125 C 5.921875 -3.953125 5.648438 -4.140625 5.328125 -4.265625 C 5.003906 -4.390625 4.566406 -4.53125 4.015625 -4.6875 C 3.335938 -4.863281 2.789062 -5.039062 2.375 -5.21875 C 1.96875 -5.394531 1.617188 -5.671875 1.328125 -6.046875 C 1.046875 -6.421875 0.90625 -6.929688 0.90625 -7.578125 C 0.90625 -8.140625 1.046875 -8.632812 1.328125 -9.0625 C 1.609375 -9.5 2.007812 -9.832031 2.53125 -10.0625 C 3.050781 -10.300781 3.644531 -10.421875 4.3125 -10.421875 C 5.28125 -10.421875 6.070312 -10.179688 6.6875 -9.703125 C 7.300781 -9.222656 7.644531 -8.582031 7.71875 -7.78125 L 6.25 -7.78125 C 6.195312 -8.175781 5.988281 -8.519531 5.625 -8.8125 C 5.257812 -9.113281 4.773438 -9.265625 4.171875 -9.265625 C 3.617188 -9.265625 3.164062 -9.117188 2.8125 -8.828125 C 2.457031 -8.546875 2.28125 -8.144531 2.28125 -7.625 C 2.28125 -7.25 2.382812 -6.941406 2.59375 -6.703125 C 2.800781 -6.460938 3.0625 -6.28125 3.375 -6.15625 C 3.6875 -6.039062 4.125 -5.90625 4.6875 -5.75 C 5.363281 -5.5625 5.90625 -5.375 6.3125 -5.1875 C 6.726562 -5.007812 7.082031 -4.726562 7.375 -4.34375 C 7.675781 -3.96875 7.828125 -3.457031 7.828125 -2.8125 C 7.828125 -2.300781 7.691406 -1.820312 7.421875 -1.375 C 7.160156 -0.9375 6.769531 -0.578125 6.25 -0.296875 C 5.726562 -0.0234375 5.113281 0.109375 4.40625 0.109375 Z M 4.40625 0.109375 "/></g></g></g><g fill="#151515" fill-opacity="1"><g transform="translate(310.379672, 101.769563)"><g/></g></g><g fill="#151515" fill-opacity="1"><g transform="translate(315.429432, 101.769563)"><g><path d="M 6.75 -5.984375 L 6.75 -4.84375 L 0.859375 -4.84375 L 0.859375 -5.984375 Z M 6.75 -5.984375 "/></g></g></g><g fill="#151515" fill-opacity="1"><g transform="translate(324.672278, 101.769563)"><g/></g></g><g fill="#151515" fill-opacity="1"><g transform="translate(329.722038, 101.769563)"><g><path d="M 4.34375 -10.296875 C 5.46875 -10.296875 6.4375 -10.082031 7.25 -9.65625 C 8.070312 -9.238281 8.703125 -8.640625 9.140625 -7.859375 C 9.578125 -7.085938 9.796875 -6.175781 9.796875 -5.125 C 9.796875 -4.070312 9.578125 -3.15625 9.140625 -2.375 C 8.703125 -1.601562 8.070312 -1.015625 7.25 -0.609375 C 6.4375 -0.203125 5.46875 0 4.34375 0 L 1.140625 0 L 1.140625 -10.296875 Z M 4.34375 -1.109375 C 5.664062 -1.109375 6.675781 -1.457031 7.375 -2.15625 C 8.082031 -2.863281 8.4375 -3.851562 8.4375 -5.125 C 8.4375 -6.40625 8.082031 -7.40625 7.375 -8.125 C 6.664062 -8.84375 5.65625 -9.203125 4.34375 -9.203125 L 2.484375 -9.203125 L 2.484375 -1.109375 Z M 4.34375 -1.109375 "/></g></g></g><g fill="#151515" fill-opacity="1"><g transform="translate(341.268127, 101.769563)"><g><path d="M 2.484375 -9.203125 L 2.484375 -5.765625 L 6.234375 -5.765625 L 6.234375 -4.65625 L 2.484375 -4.65625 L 2.484375 -1.109375 L 6.671875 -1.109375 L 6.671875 0 L 1.140625 0 L 1.140625 -10.3125 L 6.671875 -10.3125 L 6.671875 -9.203125 Z M 2.484375 -9.203125 "/></g></g></g><g fill="#151515" fill-opacity="1"><g transform="translate(349.949928, 101.769563)"><g><path d="M 4.40625 0.109375 C 3.71875 0.109375 3.101562 -0.0078125 2.5625 -0.25 C 2.03125 -0.5 1.613281 -0.835938 1.3125 -1.265625 C 1.007812 -1.691406 0.851562 -2.1875 0.84375 -2.75 L 2.28125 -2.75 C 2.320312 -2.257812 2.515625 -1.847656 2.859375 -1.515625 C 3.210938 -1.191406 3.726562 -1.03125 4.40625 -1.03125 C 5.039062 -1.03125 5.539062 -1.191406 5.90625 -1.515625 C 6.28125 -1.835938 6.46875 -2.25 6.46875 -2.75 C 6.46875 -3.144531 6.359375 -3.460938 6.140625 -3.703125 C 5.921875 -3.953125 5.648438 -4.140625 5.328125 -4.265625 C 5.003906 -4.390625 4.566406 -4.53125 4.015625 -4.6875 C 3.335938 -4.863281 2.789062 -5.039062 2.375 -5.21875 C 1.96875 -5.394531 1.617188 -5.671875 1.328125 -6.046875 C 1.046875 -6.421875 0.90625 -6.929688 0.90625 -7.578125 C 0.90625 -8.140625 1.046875 -8.632812 1.328125 -9.0625 C 1.609375 -9.5 2.007812 -9.832031 2.53125 -10.0625 C 3.050781 -10.300781 3.644531 -10.421875 4.3125 -10.421875 C 5.28125 -10.421875 6.070312 -10.179688 6.6875 -9.703125 C 7.300781 -9.222656 7.644531 -8.582031 7.71875 -7.78125 L 6.25 -7.78125 C 6.195312 -8.175781 5.988281 -8.519531 5.625 -8.8125 C 5.257812 -9.113281 4.773438 -9.265625 4.171875 -9.265625 C 3.617188 -9.265625 3.164062 -9.117188 2.8125 -8.828125 C 2.457031 -8.546875 2.28125 -8.144531 2.28125 -7.625 C 2.28125 -7.25 2.382812 -6.941406 2.59375 -6.703125 C 2.800781 -6.460938 3.0625 -6.28125 3.375 -6.15625 C 3.6875 -6.039062 4.125 -5.90625 4.6875 -5.75 C 5.363281 -5.5625 5.90625 -5.375 6.3125 -5.1875 C 6.726562 -5.007812 7.082031 -4.726562 7.375 -4.34375 C 7.675781 -3.96875 7.828125 -3.457031 7.828125 -2.8125 C 7.828125 -2.300781 7.691406 -1.820312 7.421875 -1.375 C 7.160156 -0.9375 6.769531 -0.578125 6.25 -0.296875 C 5.726562 -0.0234375 5.113281 0.109375 4.40625 0.109375 Z M 4.40625 0.109375 "/></g></g></g><g fill="#151515" fill-opacity="1"><g transform="translate(359.724292, 101.769563)"><g><path d="M 7.21875 -2.28125 L 2.734375 -2.28125 L 1.90625 0 L 0.484375 0 L 4.203125 -10.234375 L 5.765625 -10.234375 L 9.46875 0 L 8.046875 0 Z M 6.84375 -3.375 L 4.96875 -8.578125 L 3.109375 -3.375 Z M 6.84375 -3.375 "/></g></g></g><g fill="#151515" fill-opacity="1"><g transform="translate(370.783164, 101.769563)"><g><path d="M 6.5625 0 L 4.109375 -4.203125 L 2.484375 -4.203125 L 2.484375 0 L 1.140625 0 L 1.140625 -10.296875 L 4.453125 -10.296875 C 5.234375 -10.296875 5.890625 -10.160156 6.421875 -9.890625 C 6.960938 -9.628906 7.363281 -9.269531 7.625 -8.8125 C 7.894531 -8.363281 8.03125 -7.847656 8.03125 -7.265625 C 8.03125 -6.554688 7.828125 -5.929688 7.421875 -5.390625 C 7.015625 -4.847656 6.398438 -4.488281 5.578125 -4.3125 L 8.171875 0 Z M 2.484375 -5.28125 L 4.453125 -5.28125 C 5.179688 -5.28125 5.726562 -5.457031 6.09375 -5.8125 C 6.457031 -6.175781 6.640625 -6.660156 6.640625 -7.265625 C 6.640625 -7.878906 6.457031 -8.351562 6.09375 -8.6875 C 5.738281 -9.019531 5.191406 -9.1875 4.453125 -9.1875 L 2.484375 -9.1875 Z M 2.484375 -5.28125 "/></g></g></g><g fill="#151515" fill-opacity="1"><g transform="translate(380.86759, 101.769563)"><g><path d="M 6.5625 0 L 4.109375 -4.203125 L 2.484375 -4.203125 L 2.484375 0 L 1.140625 0 L 1.140625 -10.296875 L 4.453125 -10.296875 C 5.234375 -10.296875 5.890625 -10.160156 6.421875 -9.890625 C 6.960938 -9.628906 7.363281 -9.269531 7.625 -8.8125 C 7.894531 -8.363281 8.03125 -7.847656 8.03125 -7.265625 C 8.03125 -6.554688 7.828125 -5.929688 7.421875 -5.390625 C 7.015625 -4.847656 6.398438 -4.488281 5.578125 -4.3125 L 8.171875 0 Z M 2.484375 -5.28125 L 4.453125 -5.28125 C 5.179688 -5.28125 5.726562 -5.457031 6.09375 -5.8125 C 6.457031 -6.175781 6.640625 -6.660156 6.640625 -7.265625 C 6.640625 -7.878906 6.457031 -8.351562 6.09375 -8.6875 C 5.738281 -9.019531 5.191406 -9.1875 4.453125 -9.1875 L 2.484375 -9.1875 Z M 2.484375 -5.28125 "/></g></g></g><g fill="#151515" fill-opacity="1"><g transform="translate(390.952016, 101.769563)"><g><path d="M 5.796875 0.109375 C 4.847656 0.109375 3.976562 -0.113281 3.1875 -0.5625 C 2.40625 -1.007812 1.785156 -1.632812 1.328125 -2.4375 C 0.867188 -3.238281 0.640625 -4.144531 0.640625 -5.15625 C 0.640625 -6.15625 0.867188 -7.054688 1.328125 -7.859375 C 1.785156 -8.660156 2.40625 -9.285156 3.1875 -9.734375 C 3.976562 -10.179688 4.847656 -10.40625 5.796875 -10.40625 C 6.765625 -10.40625 7.640625 -10.179688 8.421875 -9.734375 C 9.210938 -9.285156 9.832031 -8.660156 10.28125 -7.859375 C 10.738281 -7.066406 10.96875 -6.164062 10.96875 -5.15625 C 10.96875 -4.132812 10.738281 -3.222656 10.28125 -2.421875 C 9.832031 -1.628906 9.210938 -1.007812 8.421875 -0.5625 C 7.640625 -0.113281 6.765625 0.109375 5.796875 0.109375 Z M 5.796875 -1.0625 C 6.515625 -1.0625 7.160156 -1.226562 7.734375 -1.5625 C 8.316406 -1.894531 8.769531 -2.367188 9.09375 -2.984375 C 9.425781 -3.609375 9.59375 -4.332031 9.59375 -5.15625 C 9.59375 -5.976562 9.425781 -6.695312 9.09375 -7.3125 C 8.769531 -7.925781 8.320312 -8.398438 7.75 -8.734375 C 7.175781 -9.078125 6.523438 -9.25 5.796875 -9.25 C 5.066406 -9.25 4.414062 -9.078125 3.84375 -8.734375 C 3.28125 -8.398438 2.832031 -7.925781 2.5 -7.3125 C 2.175781 -6.695312 2.015625 -5.976562 2.015625 -5.15625 C 2.015625 -4.332031 2.175781 -3.609375 2.5 -2.984375 C 2.832031 -2.367188 3.285156 -1.894531 3.859375 -1.5625 C 4.429688 -1.226562 5.078125 -1.0625 5.796875 -1.0625 Z M 5.796875 -1.0625 "/></g></g></g><g fill="#151515" fill-opacity="1"><g transform="translate(403.664496, 101.769563)"><g><path d="M 2.484375 -1.09375 L 6.078125 -1.09375 L 6.078125 0 L 1.140625 0 L 1.140625 -10.296875 L 2.484375 -10.296875 Z M 2.484375 -1.09375 "/></g></g></g><g fill="#151515" fill-opacity="1"><g transform="translate(411.15038, 101.769563)"><g><path d="M 2.484375 -1.09375 L 6.078125 -1.09375 L 6.078125 0 L 1.140625 0 L 1.140625 -10.296875 L 2.484375 -10.296875 Z M 2.484375 -1.09375 "/></g></g></g><g fill="#151515" fill-opacity="1"><g transform="translate(418.636263, 101.769563)"><g><path d="M 5.796875 0.109375 C 4.847656 0.109375 3.976562 -0.113281 3.1875 -0.5625 C 2.40625 -1.007812 1.785156 -1.632812 1.328125 -2.4375 C 0.867188 -3.238281 0.640625 -4.144531 0.640625 -5.15625 C 0.640625 -6.15625 0.867188 -7.054688 1.328125 -7.859375 C 1.785156 -8.660156 2.40625 -9.285156 3.1875 -9.734375 C 3.976562 -10.179688 4.847656 -10.40625 5.796875 -10.40625 C 6.765625 -10.40625 7.640625 -10.179688 8.421875 -9.734375 C 9.210938 -9.285156 9.832031 -8.660156 10.28125 -7.859375 C 10.738281 -7.066406 10.96875 -6.164062 10.96875 -5.15625 C 10.96875 -4.132812 10.738281 -3.222656 10.28125 -2.421875 C 9.832031 -1.628906 9.210938 -1.007812 8.421875 -0.5625 C 7.640625 -0.113281 6.765625 0.109375 5.796875 0.109375 Z M 5.796875 -1.0625 C 6.515625 -1.0625 7.160156 -1.226562 7.734375 -1.5625 C 8.316406 -1.894531 8.769531 -2.367188 9.09375 -2.984375 C 9.425781 -3.609375 9.59375 -4.332031 9.59375 -5.15625 C 9.59375 -5.976562 9.425781 -6.695312 9.09375 -7.3125 C 8.769531 -7.925781 8.320312 -8.398438 7.75 -8.734375 C 7.175781 -9.078125 6.523438 -9.25 5.796875 -9.25 C 5.066406 -9.25 4.414062 -9.078125 3.84375 -8.734375 C 3.28125 -8.398438 2.832031 -7.925781 2.5 -7.3125 C 2.175781 -6.695312 2.015625 -5.976562 2.015625 -5.15625 C 2.015625 -4.332031 2.175781 -3.609375 2.5 -2.984375 C 2.832031 -2.367188 3.285156 -1.894531 3.859375 -1.5625 C 4.429688 -1.226562 5.078125 -1.0625 5.796875 -1.0625 Z M 5.796875 -1.0625 "/></g></g></g><g fill="#151515" fill-opacity="1"><g transform="translate(431.348744, 101.769563)"><g/></g></g><g fill="#151515" fill-opacity="1"><g transform="translate(436.398511, 101.769563)"><g><path d="M 14.078125 -10.296875 L 11.09375 0 L 9.578125 0 L 7.1875 -8.28125 L 4.703125 0 L 3.21875 0.015625 L 0.34375 -10.296875 L 1.765625 -10.296875 L 4.015625 -1.5625 L 6.5 -10.296875 L 8 -10.296875 L 10.359375 -1.59375 L 12.625 -10.296875 Z M 14.078125 -10.296875 "/></g></g></g><g fill="#151515" fill-opacity="1"><g transform="translate(451.916228, 101.769563)"><g><path d="M 2.484375 -9.203125 L 2.484375 -5.765625 L 6.234375 -5.765625 L 6.234375 -4.65625 L 2.484375 -4.65625 L 2.484375 -1.109375 L 6.671875 -1.109375 L 6.671875 0 L 1.140625 0 L 1.140625 -10.3125 L 6.671875 -10.3125 L 6.671875 -9.203125 Z M 2.484375 -9.203125 "/></g></g></g><g fill="#151515" fill-opacity="1"><g transform="translate(460.598035, 101.769563)"><g><path d="M 6.296875 -5.296875 C 6.660156 -5.242188 7 -5.09375 7.3125 -4.84375 C 7.625 -4.59375 7.867188 -4.285156 8.046875 -3.921875 C 8.234375 -3.554688 8.328125 -3.171875 8.328125 -2.765625 C 8.328125 -2.242188 8.191406 -1.769531 7.921875 -1.34375 C 7.660156 -0.925781 7.273438 -0.597656 6.765625 -0.359375 C 6.265625 -0.117188 5.664062 0 4.96875 0 L 1.140625 0 L 1.140625 -10.296875 L 4.828125 -10.296875 C 5.523438 -10.296875 6.117188 -10.175781 6.609375 -9.9375 C 7.109375 -9.707031 7.476562 -9.394531 7.71875 -9 C 7.96875 -8.613281 8.09375 -8.171875 8.09375 -7.671875 C 8.09375 -7.066406 7.925781 -6.5625 7.59375 -6.15625 C 7.269531 -5.757812 6.835938 -5.472656 6.296875 -5.296875 Z M 2.484375 -5.84375 L 4.734375 -5.84375 C 5.367188 -5.84375 5.859375 -5.988281 6.203125 -6.28125 C 6.546875 -6.582031 6.71875 -6.992188 6.71875 -7.515625 C 6.71875 -8.035156 6.546875 -8.441406 6.203125 -8.734375 C 5.859375 -9.035156 5.359375 -9.1875 4.703125 -9.1875 L 2.484375 -9.1875 Z M 4.859375 -1.109375 C 5.523438 -1.109375 6.046875 -1.265625 6.421875 -1.578125 C 6.796875 -1.890625 6.984375 -2.328125 6.984375 -2.890625 C 6.984375 -3.460938 6.785156 -3.910156 6.390625 -4.234375 C 5.992188 -4.566406 5.46875 -4.734375 4.8125 -4.734375 L 2.484375 -4.734375 L 2.484375 -1.109375 Z M 4.859375 -1.109375 "/></g></g></g></svg>